<?xml version="1.0" encoding="utf-8" standalone="no"?>
<!DOCTYPE svg PUBLIC "-//W3C//DTD SVG 1.1//EN"
  "http://www.w3.org/Graphics/SVG/1.1/DTD/svg11.dtd">
<svg height="345.6pt" version="1.1" viewBox="0 0 460.8 345.6" width="460.8pt" xmlns="http://www.w3.org/2000/svg" xmlns:xlink="http://www.w3.org/1999/xlink">
 <metadata>
  <rdf:RDF xmlns:cc="http://creativecommons.org/ns#" xmlns:dc="http://purl.org/dc/elements/1.1/" xmlns:rdf="http://www.w3.org/1999/02/22-rdf-syntax-ns#">
   <cc:Work>
    <dc:type rdf:resource="http://purl.org/dc/dcmitype/StillImage"/>
    <dc:date>2022-11-25T11:04:04.357402</dc:date>
    <dc:format>image/svg+xml</dc:format>
    <dc:creator>
     <cc:Agent>
      <dc:title>Matplotlib v3.4.3, https://matplotlib.org/</dc:title>
     </cc:Agent>
    </dc:creator>
   </cc:Work>
  </rdf:RDF>
 </metadata>
 <defs>
  <style type="text/css">*{stroke-linecap:butt;stroke-linejoin:round;}</style>
 </defs>
 <g id="figure_1">
  <g id="patch_1">
   <path d="M 0 345.6 
L 460.8 345.6 
L 460.8 0 
L 0 0 
z
" style="fill:#ffffff;"/>
  </g>
  <g id="axes_1">
   <g id="patch_2">
    <path d="M 57.6 307.584 
L 414.72 307.584 
L 414.72 41.472 
L 57.6 41.472 
z
" style="fill:#ffffff;"/>
   </g>
   <g id="QuadMesh_1">
    <path clip-path="url(#pfae79bd41b)" d="M 25.134545 17.28 
L 57.6 17.28 
L 57.6 41.472 
L 25.134545 41.472 
L 25.134545 17.28 
" style="fill:#2c3172;"/>
    <path clip-path="url(#pfae79bd41b)" d="M 57.6 17.28 
L 90.065455 17.28 
L 90.065455 41.472 
L 57.6 41.472 
L 57.6 17.28 
" style="fill:#2a3e78;"/>
    <path clip-path="url(#pfae79bd41b)" d="M 90.065455 17.28 
L 122.530909 17.28 
L 122.530909 41.472 
L 90.065455 41.472 
L 90.065455 17.28 
" style="fill:#27457c;"/>
    <path clip-path="url(#pfae79bd41b)" d="M 122.530909 17.28 
L 154.996364 17.28 
L 154.996364 41.472 
L 122.530909 41.472 
L 122.530909 17.28 
" style="fill:#254a7f;"/>
    <path clip-path="url(#pfae79bd41b)" d="M 154.996364 17.28 
L 187.461818 17.28 
L 187.461818 41.472 
L 154.996364 41.472 
L 154.996364 17.28 
" style="fill:#244e80;"/>
    <path clip-path="url(#pfae79bd41b)" d="M 187.461818 17.28 
L 219.927273 17.28 
L 219.927273 41.472 
L 187.461818 41.472 
L 187.461818 17.28 
" style="fill:#225182;"/>
    <path clip-path="url(#pfae79bd41b)" d="M 219.927273 17.28 
L 252.392727 17.28 
L 252.392727 41.472 
L 219.927273 41.472 
L 219.927273 17.28 
" style="fill:#225383;"/>
    <path clip-path="url(#pfae79bd41b)" d="M 252.392727 17.28 
L 284.858182 17.28 
L 284.858182 41.472 
L 252.392727 41.472 
L 252.392727 17.28 
" style="fill:#215584;"/>
    <path clip-path="url(#pfae79bd41b)" d="M 284.858182 17.28 
L 317.323636 17.28 
L 317.323636 41.472 
L 284.858182 41.472 
L 284.858182 17.28 
" style="fill:#205784;"/>
    <path clip-path="url(#pfae79bd41b)" d="M 317.323636 17.28 
L 349.789091 17.28 
L 349.789091 41.472 
L 317.323636 41.472 
L 317.323636 17.28 
" style="fill:#1f5985;"/>
    <path clip-path="url(#pfae79bd41b)" d="M 349.789091 17.28 
L 382.254545 17.28 
L 382.254545 41.472 
L 349.789091 41.472 
L 349.789091 17.28 
" style="fill:#1f5a85;"/>
    <path clip-path="url(#pfae79bd41b)" d="M 25.134545 41.472 
L 57.6 41.472 
L 57.6 65.664 
L 25.134545 65.664 
L 25.134545 41.472 
" style="fill:#2c3172;"/>
    <path clip-path="url(#pfae79bd41b)" d="M 57.6 41.472 
L 90.065455 41.472 
L 90.065455 65.664 
L 57.6 65.664 
L 57.6 41.472 
" style="fill:#254a7f;"/>
    <path clip-path="url(#pfae79bd41b)" d="M 90.065455 41.472 
L 122.530909 41.472 
L 122.530909 65.664 
L 90.065455 65.664 
L 90.065455 41.472 
" style="fill:#205784;"/>
    <path clip-path="url(#pfae79bd41b)" d="M 122.530909 41.472 
L 154.996364 41.472 
L 154.996364 65.664 
L 122.530909 65.664 
L 122.530909 41.472 
" style="fill:#1d5f87;"/>
    <path clip-path="url(#pfae79bd41b)" d="M 154.996364 41.472 
L 187.461818 41.472 
L 187.461818 65.664 
L 154.996364 65.664 
L 154.996364 41.472 
" style="fill:#1c6589;"/>
    <path clip-path="url(#pfae79bd41b)" d="M 187.461818 41.472 
L 219.927273 41.472 
L 219.927273 65.664 
L 187.461818 65.664 
L 187.461818 41.472 
" style="fill:#1d6a8a;"/>
    <path clip-path="url(#pfae79bd41b)" d="M 219.927273 41.472 
L 252.392727 41.472 
L 252.392727 65.664 
L 219.927273 65.664 
L 219.927273 41.472 
" style="fill:#1e6d8a;"/>
    <path clip-path="url(#pfae79bd41b)" d="M 252.392727 41.472 
L 284.858182 41.472 
L 284.858182 65.664 
L 252.392727 65.664 
L 252.392727 41.472 
" style="fill:#20718b;"/>
    <path clip-path="url(#pfae79bd41b)" d="M 284.858182 41.472 
L 317.323636 41.472 
L 317.323636 65.664 
L 284.858182 65.664 
L 284.858182 41.472 
" style="fill:#22748b;"/>
    <path clip-path="url(#pfae79bd41b)" d="M 317.323636 41.472 
L 349.789091 41.472 
L 349.789091 65.664 
L 317.323636 65.664 
L 317.323636 41.472 
" style="fill:#23758b;"/>
    <path clip-path="url(#pfae79bd41b)" d="M 349.789091 41.472 
L 382.254545 41.472 
L 382.254545 65.664 
L 349.789091 65.664 
L 349.789091 41.472 
" style="fill:#25788c;"/>
    <path clip-path="url(#pfae79bd41b)" d="M 25.134545 65.664 
L 57.6 65.664 
L 57.6 89.856 
L 25.134545 89.856 
L 25.134545 65.664 
" style="fill:#2c3172;"/>
    <path clip-path="url(#pfae79bd41b)" d="M 57.6 65.664 
L 90.065455 65.664 
L 90.065455 89.856 
L 57.6 89.856 
L 57.6 65.664 
" style="fill:#215584;"/>
    <path clip-path="url(#pfae79bd41b)" d="M 90.065455 65.664 
L 122.530909 65.664 
L 122.530909 89.856 
L 90.065455 89.856 
L 90.065455 65.664 
" style="fill:#1c6689;"/>
    <path clip-path="url(#pfae79bd41b)" d="M 122.530909 65.664 
L 154.996364 65.664 
L 154.996364 89.856 
L 122.530909 89.856 
L 122.530909 65.664 
" style="fill:#20718b;"/>
    <path clip-path="url(#pfae79bd41b)" d="M 154.996364 65.664 
L 187.461818 65.664 
L 187.461818 89.856 
L 154.996364 89.856 
L 154.996364 65.664 
" style="fill:#25788c;"/>
    <path clip-path="url(#pfae79bd41b)" d="M 187.461818 65.664 
L 219.927273 65.664 
L 219.927273 89.856 
L 187.461818 89.856 
L 187.461818 65.664 
" style="fill:#2b7d8c;"/>
    <path clip-path="url(#pfae79bd41b)" d="M 219.927273 65.664 
L 252.392727 65.664 
L 252.392727 89.856 
L 219.927273 89.856 
L 219.927273 65.664 
" style="fill:#2f818d;"/>
    <path clip-path="url(#pfae79bd41b)" d="M 252.392727 65.664 
L 284.858182 65.664 
L 284.858182 89.856 
L 252.392727 89.856 
L 252.392727 65.664 
" style="fill:#33858d;"/>
    <path clip-path="url(#pfae79bd41b)" d="M 284.858182 65.664 
L 317.323636 65.664 
L 317.323636 89.856 
L 284.858182 89.856 
L 284.858182 65.664 
" style="fill:#37888e;"/>
    <path clip-path="url(#pfae79bd41b)" d="M 317.323636 65.664 
L 349.789091 65.664 
L 349.789091 89.856 
L 317.323636 89.856 
L 317.323636 65.664 
" style="fill:#3a8b8e;"/>
    <path clip-path="url(#pfae79bd41b)" d="M 349.789091 65.664 
L 382.254545 65.664 
L 382.254545 89.856 
L 349.789091 89.856 
L 349.789091 65.664 
" style="fill:#3c8d8e;"/>
    <path clip-path="url(#pfae79bd41b)" d="M 25.134545 89.856 
L 57.6 89.856 
L 57.6 114.048 
L 25.134545 114.048 
L 25.134545 89.856 
" style="fill:#2c3172;"/>
    <path clip-path="url(#pfae79bd41b)" d="M 57.6 89.856 
L 90.065455 89.856 
L 90.065455 114.048 
L 57.6 114.048 
L 57.6 89.856 
" style="fill:#1d5f87;"/>
    <path clip-path="url(#pfae79bd41b)" d="M 90.065455 89.856 
L 122.530909 89.856 
L 122.530909 114.048 
L 90.065455 114.048 
L 90.065455 89.856 
" style="fill:#22748b;"/>
    <path clip-path="url(#pfae79bd41b)" d="M 122.530909 89.856 
L 154.996364 89.856 
L 154.996364 114.048 
L 122.530909 114.048 
L 122.530909 89.856 
" style="fill:#2d7f8c;"/>
    <path clip-path="url(#pfae79bd41b)" d="M 154.996364 89.856 
L 187.461818 89.856 
L 187.461818 114.048 
L 154.996364 114.048 
L 154.996364 89.856 
" style="fill:#35878d;"/>
    <path clip-path="url(#pfae79bd41b)" d="M 187.461818 89.856 
L 219.927273 89.856 
L 219.927273 114.048 
L 187.461818 114.048 
L 187.461818 89.856 
" style="fill:#3c8d8e;"/>
    <path clip-path="url(#pfae79bd41b)" d="M 219.927273 89.856 
L 252.392727 89.856 
L 252.392727 114.048 
L 219.927273 114.048 
L 219.927273 89.856 
" style="fill:#41928f;"/>
    <path clip-path="url(#pfae79bd41b)" d="M 252.392727 89.856 
L 284.858182 89.856 
L 284.858182 114.048 
L 252.392727 114.048 
L 252.392727 89.856 
" style="fill:#45958f;"/>
    <path clip-path="url(#pfae79bd41b)" d="M 284.858182 89.856 
L 317.323636 89.856 
L 317.323636 114.048 
L 284.858182 114.048 
L 284.858182 89.856 
" style="fill:#49998f;"/>
    <path clip-path="url(#pfae79bd41b)" d="M 317.323636 89.856 
L 349.789091 89.856 
L 349.789091 114.048 
L 317.323636 114.048 
L 317.323636 89.856 
" style="fill:#4c9b90;"/>
    <path clip-path="url(#pfae79bd41b)" d="M 349.789091 89.856 
L 382.254545 89.856 
L 382.254545 114.048 
L 349.789091 114.048 
L 349.789091 89.856 
" style="fill:#509e90;"/>
    <path clip-path="url(#pfae79bd41b)" d="M 25.134545 114.048 
L 57.6 114.048 
L 57.6 138.24 
L 25.134545 138.24 
L 25.134545 114.048 
" style="fill:#2c3172;"/>
    <path clip-path="url(#pfae79bd41b)" d="M 57.6 114.048 
L 90.065455 114.048 
L 90.065455 138.24 
L 57.6 138.24 
L 57.6 114.048 
" style="fill:#1c6889;"/>
    <path clip-path="url(#pfae79bd41b)" d="M 90.065455 114.048 
L 122.530909 114.048 
L 122.530909 138.24 
L 90.065455 138.24 
L 90.065455 114.048 
" style="fill:#2c7e8c;"/>
    <path clip-path="url(#pfae79bd41b)" d="M 122.530909 114.048 
L 154.996364 114.048 
L 154.996364 138.24 
L 122.530909 138.24 
L 122.530909 114.048 
" style="fill:#3a8b8e;"/>
    <path clip-path="url(#pfae79bd41b)" d="M 154.996364 114.048 
L 187.461818 114.048 
L 187.461818 138.24 
L 154.996364 138.24 
L 154.996364 114.048 
" style="fill:#43948f;"/>
    <path clip-path="url(#pfae79bd41b)" d="M 187.461818 114.048 
L 219.927273 114.048 
L 219.927273 138.24 
L 187.461818 138.24 
L 187.461818 114.048 
" style="fill:#4b9a8f;"/>
    <path clip-path="url(#pfae79bd41b)" d="M 219.927273 114.048 
L 252.392727 114.048 
L 252.392727 138.24 
L 219.927273 138.24 
L 219.927273 114.048 
" style="fill:#509f90;"/>
    <path clip-path="url(#pfae79bd41b)" d="M 252.392727 114.048 
L 284.858182 114.048 
L 284.858182 138.24 
L 252.392727 138.24 
L 252.392727 114.048 
" style="fill:#56a390;"/>
    <path clip-path="url(#pfae79bd41b)" d="M 284.858182 114.048 
L 317.323636 114.048 
L 317.323636 138.24 
L 284.858182 138.24 
L 284.858182 114.048 
" style="fill:#5aa690;"/>
    <path clip-path="url(#pfae79bd41b)" d="M 317.323636 114.048 
L 349.789091 114.048 
L 349.789091 138.24 
L 317.323636 138.24 
L 317.323636 114.048 
" style="fill:#5ea990;"/>
    <path clip-path="url(#pfae79bd41b)" d="M 349.789091 114.048 
L 382.254545 114.048 
L 382.254545 138.24 
L 349.789091 138.24 
L 349.789091 114.048 
" style="fill:#62ab90;"/>
    <path clip-path="url(#pfae79bd41b)" d="M 25.134545 138.24 
L 57.6 138.24 
L 57.6 162.432 
L 25.134545 162.432 
L 25.134545 138.24 
" style="fill:#2c3172;"/>
    <path clip-path="url(#pfae79bd41b)" d="M 57.6 138.24 
L 90.065455 138.24 
L 90.065455 162.432 
L 57.6 162.432 
L 57.6 138.24 
" style="fill:#20718b;"/>
    <path clip-path="url(#pfae79bd41b)" d="M 90.065455 138.24 
L 122.530909 138.24 
L 122.530909 162.432 
L 90.065455 162.432 
L 90.065455 138.24 
" style="fill:#37888e;"/>
    <path clip-path="url(#pfae79bd41b)" d="M 122.530909 138.24 
L 154.996364 138.24 
L 154.996364 162.432 
L 122.530909 162.432 
L 122.530909 138.24 
" style="fill:#45958f;"/>
    <path clip-path="url(#pfae79bd41b)" d="M 154.996364 138.24 
L 187.461818 138.24 
L 187.461818 162.432 
L 154.996364 162.432 
L 154.996364 138.24 
" style="fill:#509e90;"/>
    <path clip-path="url(#pfae79bd41b)" d="M 187.461818 138.24 
L 219.927273 138.24 
L 219.927273 162.432 
L 187.461818 162.432 
L 187.461818 138.24 
" style="fill:#58a590;"/>
    <path clip-path="url(#pfae79bd41b)" d="M 219.927273 138.24 
L 252.392727 138.24 
L 252.392727 162.432 
L 219.927273 162.432 
L 219.927273 138.24 
" style="fill:#5fa990;"/>
    <path clip-path="url(#pfae79bd41b)" d="M 252.392727 138.24 
L 284.858182 138.24 
L 284.858182 162.432 
L 252.392727 162.432 
L 252.392727 138.24 
" style="fill:#65ad90;"/>
    <path clip-path="url(#pfae79bd41b)" d="M 284.858182 138.24 
L 317.323636 138.24 
L 317.323636 162.432 
L 284.858182 162.432 
L 284.858182 138.24 
" style="fill:#6ab090;"/>
    <path clip-path="url(#pfae79bd41b)" d="M 317.323636 138.24 
L 349.789091 138.24 
L 349.789091 162.432 
L 317.323636 162.432 
L 317.323636 138.24 
" style="fill:#6fb390;"/>
    <path clip-path="url(#pfae79bd41b)" d="M 349.789091 138.24 
L 382.254545 138.24 
L 382.254545 162.432 
L 349.789091 162.432 
L 349.789091 138.24 
" style="fill:#73b590;"/>
    <path clip-path="url(#pfae79bd41b)" d="M 25.134545 162.432 
L 57.6 162.432 
L 57.6 186.624 
L 25.134545 186.624 
L 25.134545 162.432 
" style="fill:#2c3172;"/>
    <path clip-path="url(#pfae79bd41b)" d="M 57.6 162.432 
L 90.065455 162.432 
L 90.065455 186.624 
L 57.6 186.624 
L 57.6 162.432 
" style="fill:#25788c;"/>
    <path clip-path="url(#pfae79bd41b)" d="M 90.065455 162.432 
L 122.530909 162.432 
L 122.530909 186.624 
L 90.065455 186.624 
L 90.065455 162.432 
" style="fill:#40918f;"/>
    <path clip-path="url(#pfae79bd41b)" d="M 122.530909 162.432 
L 154.996364 162.432 
L 154.996364 186.624 
L 122.530909 186.624 
L 122.530909 162.432 
" style="fill:#509f90;"/>
    <path clip-path="url(#pfae79bd41b)" d="M 154.996364 162.432 
L 187.461818 162.432 
L 187.461818 186.624 
L 154.996364 186.624 
L 154.996364 162.432 
" style="fill:#5ca890;"/>
    <path clip-path="url(#pfae79bd41b)" d="M 187.461818 162.432 
L 219.927273 162.432 
L 219.927273 186.624 
L 187.461818 186.624 
L 187.461818 162.432 
" style="fill:#66ae90;"/>
    <path clip-path="url(#pfae79bd41b)" d="M 219.927273 162.432 
L 252.392727 162.432 
L 252.392727 186.624 
L 219.927273 186.624 
L 219.927273 162.432 
" style="fill:#6eb290;"/>
    <path clip-path="url(#pfae79bd41b)" d="M 252.392727 162.432 
L 284.858182 162.432 
L 284.858182 186.624 
L 252.392727 186.624 
L 252.392727 162.432 
" style="fill:#74b690;"/>
    <path clip-path="url(#pfae79bd41b)" d="M 284.858182 162.432 
L 317.323636 162.432 
L 317.323636 186.624 
L 284.858182 186.624 
L 284.858182 162.432 
" style="fill:#79b891;"/>
    <path clip-path="url(#pfae79bd41b)" d="M 317.323636 162.432 
L 349.789091 162.432 
L 349.789091 186.624 
L 317.323636 186.624 
L 317.323636 162.432 
" style="fill:#7eba91;"/>
    <path clip-path="url(#pfae79bd41b)" d="M 349.789091 162.432 
L 382.254545 162.432 
L 382.254545 186.624 
L 349.789091 186.624 
L 349.789091 162.432 
" style="fill:#82bc91;"/>
    <path clip-path="url(#pfae79bd41b)" d="M 25.134545 186.624 
L 57.6 186.624 
L 57.6 210.816 
L 25.134545 210.816 
L 25.134545 186.624 
" style="fill:#2c3172;"/>
    <path clip-path="url(#pfae79bd41b)" d="M 57.6 186.624 
L 90.065455 186.624 
L 90.065455 210.816 
L 57.6 210.816 
L 57.6 186.624 
" style="fill:#2d7f8c;"/>
    <path clip-path="url(#pfae79bd41b)" d="M 90.065455 186.624 
L 122.530909 186.624 
L 122.530909 210.816 
L 90.065455 210.816 
L 90.065455 186.624 
" style="fill:#49998f;"/>
    <path clip-path="url(#pfae79bd41b)" d="M 122.530909 186.624 
L 154.996364 186.624 
L 154.996364 210.816 
L 122.530909 210.816 
L 122.530909 186.624 
" style="fill:#5ba690;"/>
    <path clip-path="url(#pfae79bd41b)" d="M 154.996364 186.624 
L 187.461818 186.624 
L 187.461818 210.816 
L 154.996364 210.816 
L 154.996364 186.624 
" style="fill:#68af90;"/>
    <path clip-path="url(#pfae79bd41b)" d="M 187.461818 186.624 
L 219.927273 186.624 
L 219.927273 210.816 
L 187.461818 210.816 
L 187.461818 186.624 
" style="fill:#72b490;"/>
    <path clip-path="url(#pfae79bd41b)" d="M 219.927273 186.624 
L 252.392727 186.624 
L 252.392727 210.816 
L 219.927273 210.816 
L 219.927273 186.624 
" style="fill:#7bb991;"/>
    <path clip-path="url(#pfae79bd41b)" d="M 252.392727 186.624 
L 284.858182 186.624 
L 284.858182 210.816 
L 252.392727 210.816 
L 252.392727 186.624 
" style="fill:#81bc91;"/>
    <path clip-path="url(#pfae79bd41b)" d="M 284.858182 186.624 
L 317.323636 186.624 
L 317.323636 210.816 
L 284.858182 210.816 
L 284.858182 186.624 
" style="fill:#87be91;"/>
    <path clip-path="url(#pfae79bd41b)" d="M 317.323636 186.624 
L 349.789091 186.624 
L 349.789091 210.816 
L 317.323636 210.816 
L 317.323636 186.624 
" style="fill:#8bc191;"/>
    <path clip-path="url(#pfae79bd41b)" d="M 349.789091 186.624 
L 382.254545 186.624 
L 382.254545 210.816 
L 349.789091 210.816 
L 349.789091 186.624 
" style="fill:#8fc291;"/>
    <path clip-path="url(#pfae79bd41b)" d="M 25.134545 210.816 
L 57.6 210.816 
L 57.6 235.008 
L 25.134545 235.008 
L 25.134545 210.816 
" style="fill:#2c3172;"/>
    <path clip-path="url(#pfae79bd41b)" d="M 57.6 210.816 
L 90.065455 210.816 
L 90.065455 235.008 
L 57.6 235.008 
L 57.6 210.816 
" style="fill:#33858d;"/>
    <path clip-path="url(#pfae79bd41b)" d="M 90.065455 210.816 
L 122.530909 210.816 
L 122.530909 235.008 
L 90.065455 235.008 
L 90.065455 210.816 
" style="fill:#52a090;"/>
    <path clip-path="url(#pfae79bd41b)" d="M 122.530909 210.816 
L 154.996364 210.816 
L 154.996364 235.008 
L 122.530909 235.008 
L 122.530909 210.816 
" style="fill:#65ad90;"/>
    <path clip-path="url(#pfae79bd41b)" d="M 154.996364 210.816 
L 187.461818 210.816 
L 187.461818 235.008 
L 154.996364 235.008 
L 154.996364 210.816 
" style="fill:#73b590;"/>
    <path clip-path="url(#pfae79bd41b)" d="M 187.461818 210.816 
L 219.927273 210.816 
L 219.927273 235.008 
L 187.461818 235.008 
L 187.461818 210.816 
" style="fill:#7eba91;"/>
    <path clip-path="url(#pfae79bd41b)" d="M 219.927273 210.816 
L 252.392727 210.816 
L 252.392727 235.008 
L 219.927273 235.008 
L 219.927273 210.816 
" style="fill:#86be91;"/>
    <path clip-path="url(#pfae79bd41b)" d="M 252.392727 210.816 
L 284.858182 210.816 
L 284.858182 235.008 
L 252.392727 235.008 
L 252.392727 210.816 
" style="fill:#8dc191;"/>
    <path clip-path="url(#pfae79bd41b)" d="M 284.858182 210.816 
L 317.323636 210.816 
L 317.323636 235.008 
L 284.858182 235.008 
L 284.858182 210.816 
" style="fill:#91c391;"/>
    <path clip-path="url(#pfae79bd41b)" d="M 317.323636 210.816 
L 349.789091 210.816 
L 349.789091 235.008 
L 317.323636 235.008 
L 317.323636 210.816 
" style="fill:#95c591;"/>
    <path clip-path="url(#pfae79bd41b)" d="M 349.789091 210.816 
L 382.254545 210.816 
L 382.254545 235.008 
L 349.789091 235.008 
L 349.789091 210.816 
" style="fill:#98c691;"/>
    <path clip-path="url(#pfae79bd41b)" d="M 25.134545 235.008 
L 57.6 235.008 
L 57.6 259.2 
L 25.134545 259.2 
L 25.134545 235.008 
" style="fill:#2c3172;"/>
    <path clip-path="url(#pfae79bd41b)" d="M 57.6 235.008 
L 90.065455 235.008 
L 90.065455 259.2 
L 57.6 259.2 
L 57.6 235.008 
" style="fill:#3a8b8e;"/>
    <path clip-path="url(#pfae79bd41b)" d="M 90.065455 235.008 
L 122.530909 235.008 
L 122.530909 259.2 
L 90.065455 259.2 
L 90.065455 235.008 
" style="fill:#5aa690;"/>
    <path clip-path="url(#pfae79bd41b)" d="M 122.530909 235.008 
L 154.996364 235.008 
L 154.996364 259.2 
L 122.530909 259.2 
L 122.530909 235.008 
" style="fill:#6fb390;"/>
    <path clip-path="url(#pfae79bd41b)" d="M 154.996364 235.008 
L 187.461818 235.008 
L 187.461818 259.2 
L 154.996364 259.2 
L 154.996364 235.008 
" style="fill:#7eba91;"/>
    <path clip-path="url(#pfae79bd41b)" d="M 187.461818 235.008 
L 219.927273 235.008 
L 219.927273 259.2 
L 187.461818 259.2 
L 187.461818 235.008 
" style="fill:#88bf91;"/>
    <path clip-path="url(#pfae79bd41b)" d="M 219.927273 235.008 
L 252.392727 235.008 
L 252.392727 259.2 
L 219.927273 259.2 
L 219.927273 235.008 
" style="fill:#90c391;"/>
    <path clip-path="url(#pfae79bd41b)" d="M 252.392727 235.008 
L 284.858182 235.008 
L 284.858182 259.2 
L 252.392727 259.2 
L 252.392727 235.008 
" style="fill:#95c591;"/>
    <path clip-path="url(#pfae79bd41b)" d="M 284.858182 235.008 
L 317.323636 235.008 
L 317.323636 259.2 
L 284.858182 259.2 
L 284.858182 235.008 
" style="fill:#9ac791;"/>
    <path clip-path="url(#pfae79bd41b)" d="M 317.323636 235.008 
L 349.789091 235.008 
L 349.789091 259.2 
L 317.323636 259.2 
L 317.323636 235.008 
" style="fill:#9dc991;"/>
    <path clip-path="url(#pfae79bd41b)" d="M 349.789091 235.008 
L 382.254545 235.008 
L 382.254545 259.2 
L 349.789091 259.2 
L 349.789091 235.008 
" style="fill:#9fca91;"/>
    <path clip-path="url(#pfae79bd41b)" d="M 25.134545 259.2 
L 57.6 259.2 
L 57.6 283.392 
L 25.134545 283.392 
L 25.134545 259.2 
" style="fill:#2c3172;"/>
    <path clip-path="url(#pfae79bd41b)" d="M 57.6 259.2 
L 90.065455 259.2 
L 90.065455 283.392 
L 57.6 283.392 
L 57.6 259.2 
" style="fill:#40918f;"/>
    <path clip-path="url(#pfae79bd41b)" d="M 90.065455 259.2 
L 122.530909 259.2 
L 122.530909 283.392 
L 90.065455 283.392 
L 90.065455 259.2 
" style="fill:#62ac90;"/>
    <path clip-path="url(#pfae79bd41b)" d="M 122.530909 259.2 
L 154.996364 259.2 
L 154.996364 283.392 
L 122.530909 283.392 
L 122.530909 259.2 
" style="fill:#78b891;"/>
    <path clip-path="url(#pfae79bd41b)" d="M 154.996364 259.2 
L 187.461818 259.2 
L 187.461818 283.392 
L 154.996364 283.392 
L 154.996364 259.2 
" style="fill:#87be91;"/>
    <path clip-path="url(#pfae79bd41b)" d="M 187.461818 259.2 
L 219.927273 259.2 
L 219.927273 283.392 
L 187.461818 283.392 
L 187.461818 259.2 
" style="fill:#91c391;"/>
    <path clip-path="url(#pfae79bd41b)" d="M 219.927273 259.2 
L 252.392727 259.2 
L 252.392727 283.392 
L 219.927273 283.392 
L 219.927273 259.2 
" style="fill:#98c691;"/>
    <path clip-path="url(#pfae79bd41b)" d="M 252.392727 259.2 
L 284.858182 259.2 
L 284.858182 283.392 
L 252.392727 283.392 
L 252.392727 259.2 
" style="fill:#9cc891;"/>
    <path clip-path="url(#pfae79bd41b)" d="M 284.858182 259.2 
L 317.323636 259.2 
L 317.323636 283.392 
L 284.858182 283.392 
L 284.858182 259.2 
" style="fill:#a0cb91;"/>
    <path clip-path="url(#pfae79bd41b)" d="M 317.323636 259.2 
L 349.789091 259.2 
L 349.789091 283.392 
L 317.323636 283.392 
L 317.323636 259.2 
" style="fill:#a3cc91;"/>
    <path clip-path="url(#pfae79bd41b)" d="M 349.789091 259.2 
L 382.254545 259.2 
L 382.254545 283.392 
L 349.789091 283.392 
L 349.789091 259.2 
" style="fill:#a5cd90;"/>
   </g>
   <g id="matplotlib.axis_1">
    <g id="xtick_1">
     <g id="line2d_1">
      <defs>
       <path d="M 0 0 
L 0 3.5 
" id="m9bf6895678" style="stroke:#000000;stroke-width:0.8;"/>
      </defs>
      <g>
       <use style="stroke:#000000;stroke-width:0.8;" x="73.832727" xlink:href="#m9bf6895678" y="307.584"/>
      </g>
     </g>
     <g id="text_1">
      <!-- 1 -->
      <g transform="translate(71.62494 319.857316)scale(0.0694 -0.0694)">
       <defs>
        <path d="M 909 0 
L 909 331 
L 1722 331 
L 1722 4213 
L 781 3603 
L 781 4013 
L 1919 4750 
L 2350 4750 
L 2350 331 
L 3163 331 
L 3163 0 
L 909 0 
z
" id="DejaVuSerif-31" transform="scale(0.015625)"/>
       </defs>
       <use xlink:href="#DejaVuSerif-31"/>
      </g>
     </g>
    </g>
    <g id="xtick_2">
     <g id="line2d_2">
      <g>
       <use style="stroke:#000000;stroke-width:0.8;" x="106.298182" xlink:href="#m9bf6895678" y="307.584"/>
      </g>
     </g>
     <g id="text_2">
      <!-- 2 -->
      <g transform="translate(104.090394 319.857316)scale(0.0694 -0.0694)">
       <defs>
        <path d="M 819 3553 
L 469 3553 
L 469 4384 
Q 803 4563 1142 4656 
Q 1481 4750 1806 4750 
Q 2534 4750 2956 4397 
Q 3378 4044 3378 3438 
Q 3378 2753 2422 1800 
Q 2347 1728 2309 1691 
L 1131 513 
L 3078 513 
L 3078 1088 
L 3444 1088 
L 3444 0 
L 434 0 
L 434 341 
L 1850 1753 
Q 2319 2222 2519 2614 
Q 2719 3006 2719 3438 
Q 2719 3909 2473 4175 
Q 2228 4441 1797 4441 
Q 1350 4441 1106 4219 
Q 863 3997 819 3553 
z
" id="DejaVuSerif-32" transform="scale(0.015625)"/>
       </defs>
       <use xlink:href="#DejaVuSerif-32"/>
      </g>
     </g>
    </g>
    <g id="xtick_3">
     <g id="line2d_3">
      <g>
       <use style="stroke:#000000;stroke-width:0.8;" x="138.763636" xlink:href="#m9bf6895678" y="307.584"/>
      </g>
     </g>
     <g id="text_3">
      <!-- 3 -->
      <g transform="translate(136.555849 319.857316)scale(0.0694 -0.0694)">
       <defs>
        <path d="M 622 4469 
Q 988 4606 1323 4678 
Q 1659 4750 1953 4750 
Q 2638 4750 3022 4454 
Q 3406 4159 3406 3634 
Q 3406 3213 3140 2930 
Q 2875 2647 2388 2547 
Q 2963 2466 3280 2130 
Q 3597 1794 3597 1259 
Q 3597 606 3158 257 
Q 2719 -91 1894 -91 
Q 1528 -91 1179 -12 
Q 831 66 488 225 
L 488 1131 
L 838 1131 
Q 869 681 1141 450 
Q 1413 219 1906 219 
Q 2384 219 2661 495 
Q 2938 772 2938 1253 
Q 2938 1803 2653 2086 
Q 2369 2369 1819 2369 
L 1522 2369 
L 1522 2688 
L 1678 2688 
Q 2225 2688 2498 2914 
Q 2772 3141 2772 3597 
Q 2772 4006 2547 4223 
Q 2322 4441 1900 4441 
Q 1478 4441 1245 4241 
Q 1013 4041 972 3647 
L 622 3647 
L 622 4469 
z
" id="DejaVuSerif-33" transform="scale(0.015625)"/>
       </defs>
       <use xlink:href="#DejaVuSerif-33"/>
      </g>
     </g>
    </g>
    <g id="xtick_4">
     <g id="line2d_4">
      <g>
       <use style="stroke:#000000;stroke-width:0.8;" x="171.229091" xlink:href="#m9bf6895678" y="307.584"/>
      </g>
     </g>
     <g id="text_4">
      <!-- 4 -->
      <g transform="translate(169.021303 319.857316)scale(0.0694 -0.0694)">
       <defs>
        <path d="M 2234 1581 
L 2234 4063 
L 641 1581 
L 2234 1581 
z
M 3609 0 
L 1484 0 
L 1484 331 
L 2234 331 
L 2234 1247 
L 197 1247 
L 197 1588 
L 2241 4750 
L 2859 4750 
L 2859 1581 
L 3750 1581 
L 3750 1247 
L 2859 1247 
L 2859 331 
L 3609 331 
L 3609 0 
z
" id="DejaVuSerif-34" transform="scale(0.015625)"/>
       </defs>
       <use xlink:href="#DejaVuSerif-34"/>
      </g>
     </g>
    </g>
    <g id="xtick_5">
     <g id="line2d_5">
      <g>
       <use style="stroke:#000000;stroke-width:0.8;" x="203.694545" xlink:href="#m9bf6895678" y="307.584"/>
      </g>
     </g>
     <g id="text_5">
      <!-- 5 -->
      <g transform="translate(201.486758 319.857316)scale(0.0694 -0.0694)">
       <defs>
        <path d="M 3219 4666 
L 3219 4153 
L 1081 4153 
L 1081 2816 
Q 1244 2928 1461 2984 
Q 1678 3041 1947 3041 
Q 2703 3041 3140 2622 
Q 3578 2203 3578 1478 
Q 3578 738 3136 323 
Q 2694 -91 1894 -91 
Q 1572 -91 1234 -12 
Q 897 66 544 225 
L 544 1131 
L 897 1131 
Q 925 688 1179 453 
Q 1434 219 1894 219 
Q 2388 219 2653 544 
Q 2919 869 2919 1478 
Q 2919 2084 2655 2407 
Q 2391 2731 1894 2731 
Q 1613 2731 1398 2631 
Q 1184 2531 1019 2322 
L 750 2322 
L 750 4666 
L 3219 4666 
z
" id="DejaVuSerif-35" transform="scale(0.015625)"/>
       </defs>
       <use xlink:href="#DejaVuSerif-35"/>
      </g>
     </g>
    </g>
    <g id="xtick_6">
     <g id="line2d_6">
      <g>
       <use style="stroke:#000000;stroke-width:0.8;" x="236.16" xlink:href="#m9bf6895678" y="307.584"/>
      </g>
     </g>
     <g id="text_6">
      <!-- 6 -->
      <g transform="translate(233.952213 319.857316)scale(0.0694 -0.0694)">
       <defs>
        <path d="M 2094 219 
Q 2534 219 2771 542 
Q 3009 866 3009 1472 
Q 3009 2078 2771 2401 
Q 2534 2725 2094 2725 
Q 1647 2725 1412 2412 
Q 1178 2100 1178 1509 
Q 1178 888 1415 553 
Q 1653 219 2094 219 
z
M 1075 2569 
Q 1288 2803 1556 2918 
Q 1825 3034 2163 3034 
Q 2859 3034 3264 2615 
Q 3669 2197 3669 1472 
Q 3669 763 3233 336 
Q 2797 -91 2069 -91 
Q 1278 -91 853 498 
Q 428 1088 428 2181 
Q 428 3406 931 4078 
Q 1434 4750 2350 4750 
Q 2597 4750 2869 4703 
Q 3141 4656 3425 4563 
L 3425 3794 
L 3072 3794 
Q 3034 4109 2831 4275 
Q 2628 4441 2284 4441 
Q 1678 4441 1381 3981 
Q 1084 3522 1075 2569 
z
" id="DejaVuSerif-36" transform="scale(0.015625)"/>
       </defs>
       <use xlink:href="#DejaVuSerif-36"/>
      </g>
     </g>
    </g>
    <g id="xtick_7">
     <g id="line2d_7">
      <g>
       <use style="stroke:#000000;stroke-width:0.8;" x="268.625455" xlink:href="#m9bf6895678" y="307.584"/>
      </g>
     </g>
     <g id="text_7">
      <!-- 7 -->
      <g transform="translate(266.417667 319.857316)scale(0.0694 -0.0694)">
       <defs>
        <path d="M 3609 4347 
L 1784 0 
L 1319 0 
L 3059 4153 
L 903 4153 
L 903 3578 
L 538 3578 
L 538 4666 
L 3609 4666 
L 3609 4347 
z
" id="DejaVuSerif-37" transform="scale(0.015625)"/>
       </defs>
       <use xlink:href="#DejaVuSerif-37"/>
      </g>
     </g>
    </g>
    <g id="xtick_8">
     <g id="line2d_8">
      <g>
       <use style="stroke:#000000;stroke-width:0.8;" x="301.090909" xlink:href="#m9bf6895678" y="307.584"/>
      </g>
     </g>
     <g id="text_8">
      <!-- 8 -->
      <g transform="translate(298.883122 319.857316)scale(0.0694 -0.0694)">
       <defs>
        <path d="M 2981 1275 
Q 2981 1775 2732 2051 
Q 2484 2328 2034 2328 
Q 1584 2328 1336 2051 
Q 1088 1775 1088 1275 
Q 1088 772 1336 495 
Q 1584 219 2034 219 
Q 2484 219 2732 495 
Q 2981 772 2981 1275 
z
M 2853 3541 
Q 2853 3966 2637 4203 
Q 2422 4441 2034 4441 
Q 1650 4441 1433 4203 
Q 1216 3966 1216 3541 
Q 1216 3113 1433 2875 
Q 1650 2638 2034 2638 
Q 2422 2638 2637 2875 
Q 2853 3113 2853 3541 
z
M 2516 2484 
Q 3047 2413 3344 2092 
Q 3641 1772 3641 1275 
Q 3641 619 3225 264 
Q 2809 -91 2034 -91 
Q 1263 -91 845 264 
Q 428 619 428 1275 
Q 428 1772 725 2092 
Q 1022 2413 1556 2484 
Q 1084 2569 832 2842 
Q 581 3116 581 3541 
Q 581 4103 968 4426 
Q 1356 4750 2034 4750 
Q 2713 4750 3100 4426 
Q 3488 4103 3488 3541 
Q 3488 3116 3236 2842 
Q 2984 2569 2516 2484 
z
" id="DejaVuSerif-38" transform="scale(0.015625)"/>
       </defs>
       <use xlink:href="#DejaVuSerif-38"/>
      </g>
     </g>
    </g>
    <g id="xtick_9">
     <g id="line2d_9">
      <g>
       <use style="stroke:#000000;stroke-width:0.8;" x="333.556364" xlink:href="#m9bf6895678" y="307.584"/>
      </g>
     </g>
     <g id="text_9">
      <!-- 9 -->
      <g transform="translate(331.348576 319.857316)scale(0.0694 -0.0694)">
       <defs>
        <path d="M 2994 2091 
Q 2784 1856 2512 1740 
Q 2241 1625 1900 1625 
Q 1206 1625 804 2044 
Q 403 2463 403 3188 
Q 403 3897 839 4323 
Q 1275 4750 2003 4750 
Q 2794 4750 3217 4161 
Q 3641 3572 3641 2478 
Q 3641 1253 3137 581 
Q 2634 -91 1722 -91 
Q 1475 -91 1203 -44 
Q 931 3 647 97 
L 647 872 
L 997 872 
Q 1038 556 1241 387 
Q 1444 219 1784 219 
Q 2391 219 2687 676 
Q 2984 1134 2994 2091 
z
M 1978 4441 
Q 1534 4441 1298 4117 
Q 1063 3794 1063 3188 
Q 1063 2581 1298 2256 
Q 1534 1931 1978 1931 
Q 2422 1931 2658 2245 
Q 2894 2559 2894 3150 
Q 2894 3772 2656 4106 
Q 2419 4441 1978 4441 
z
" id="DejaVuSerif-39" transform="scale(0.015625)"/>
       </defs>
       <use xlink:href="#DejaVuSerif-39"/>
      </g>
     </g>
    </g>
    <g id="xtick_10">
     <g id="line2d_10">
      <g>
       <use style="stroke:#000000;stroke-width:0.8;" x="366.021818" xlink:href="#m9bf6895678" y="307.584"/>
      </g>
     </g>
     <g id="text_10">
      <!-- 10 -->
      <g transform="translate(361.606243 319.857316)scale(0.0694 -0.0694)">
       <defs>
        <path d="M 2034 219 
Q 2513 219 2750 744 
Q 2988 1269 2988 2328 
Q 2988 3391 2750 3916 
Q 2513 4441 2034 4441 
Q 1556 4441 1318 3916 
Q 1081 3391 1081 2328 
Q 1081 1269 1318 744 
Q 1556 219 2034 219 
z
M 2034 -91 
Q 1275 -91 848 546 
Q 422 1184 422 2328 
Q 422 3475 848 4112 
Q 1275 4750 2034 4750 
Q 2797 4750 3222 4112 
Q 3647 3475 3647 2328 
Q 3647 1184 3222 546 
Q 2797 -91 2034 -91 
z
" id="DejaVuSerif-30" transform="scale(0.015625)"/>
       </defs>
       <use xlink:href="#DejaVuSerif-31"/>
       <use x="63.623047" xlink:href="#DejaVuSerif-30"/>
      </g>
     </g>
    </g>
    <g id="text_11">
     <!-- $c$ -->
     <g transform="translate(233.41 332.899056)scale(0.1 -0.1)">
      <defs>
       <path d="M 3431 3366 
L 3316 2797 
Q 3109 2947 2876 3022 
Q 2644 3097 2394 3097 
Q 2119 3097 1870 3000 
Q 1622 2903 1453 2725 
Q 1184 2453 1037 2087 
Q 891 1722 891 1331 
Q 891 859 1127 628 
Q 1363 397 1844 397 
Q 2081 397 2348 469 
Q 2616 541 2906 684 
L 2797 116 
Q 2547 13 2283 -39 
Q 2019 -91 1741 -91 
Q 1044 -91 669 257 
Q 294 606 294 1253 
Q 294 1797 489 2255 
Q 684 2713 1069 3078 
Q 1331 3328 1684 3456 
Q 2038 3584 2456 3584 
Q 2700 3584 2940 3529 
Q 3181 3475 3431 3366 
z
" id="DejaVuSans-Oblique-63" transform="scale(0.015625)"/>
      </defs>
      <use xlink:href="#DejaVuSans-Oblique-63"/>
     </g>
    </g>
   </g>
   <g id="matplotlib.axis_2">
    <g id="ytick_1">
     <g id="line2d_11">
      <defs>
       <path d="M 0 0 
L -3.5 0 
" id="mc921e06894" style="stroke:#000000;stroke-width:0.8;"/>
      </defs>
      <g>
       <use style="stroke:#000000;stroke-width:0.8;" x="57.6" xlink:href="#mc921e06894" y="53.568"/>
      </g>
     </g>
     <g id="text_12">
      <!-- 1 -->
      <g transform="translate(49.156697 55.775788)rotate(-90)scale(0.0694 -0.0694)">
       <use xlink:href="#DejaVuSerif-31"/>
      </g>
     </g>
    </g>
    <g id="ytick_2">
     <g id="line2d_12">
      <g>
       <use style="stroke:#000000;stroke-width:0.8;" x="57.6" xlink:href="#mc921e06894" y="77.76"/>
      </g>
     </g>
     <g id="text_13">
      <!-- 2 -->
      <g transform="translate(49.156697 79.967788)rotate(-90)scale(0.0694 -0.0694)">
       <use xlink:href="#DejaVuSerif-32"/>
      </g>
     </g>
    </g>
    <g id="ytick_3">
     <g id="line2d_13">
      <g>
       <use style="stroke:#000000;stroke-width:0.8;" x="57.6" xlink:href="#mc921e06894" y="101.952"/>
      </g>
     </g>
     <g id="text_14">
      <!-- 3 -->
      <g transform="translate(49.156697 104.159787)rotate(-90)scale(0.0694 -0.0694)">
       <use xlink:href="#DejaVuSerif-33"/>
      </g>
     </g>
    </g>
    <g id="ytick_4">
     <g id="line2d_14">
      <g>
       <use style="stroke:#000000;stroke-width:0.8;" x="57.6" xlink:href="#mc921e06894" y="126.144"/>
      </g>
     </g>
     <g id="text_15">
      <!-- 4 -->
      <g transform="translate(49.156697 128.351788)rotate(-90)scale(0.0694 -0.0694)">
       <use xlink:href="#DejaVuSerif-34"/>
      </g>
     </g>
    </g>
    <g id="ytick_5">
     <g id="line2d_15">
      <g>
       <use style="stroke:#000000;stroke-width:0.8;" x="57.6" xlink:href="#mc921e06894" y="150.336"/>
      </g>
     </g>
     <g id="text_16">
      <!-- 5 -->
      <g transform="translate(49.156697 152.543788)rotate(-90)scale(0.0694 -0.0694)">
       <use xlink:href="#DejaVuSerif-35"/>
      </g>
     </g>
    </g>
    <g id="ytick_6">
     <g id="line2d_16">
      <g>
       <use style="stroke:#000000;stroke-width:0.8;" x="57.6" xlink:href="#mc921e06894" y="174.528"/>
      </g>
     </g>
     <g id="text_17">
      <!-- 6 -->
      <g transform="translate(49.156697 176.735788)rotate(-90)scale(0.0694 -0.0694)">
       <use xlink:href="#DejaVuSerif-36"/>
      </g>
     </g>
    </g>
    <g id="ytick_7">
     <g id="line2d_17">
      <g>
       <use style="stroke:#000000;stroke-width:0.8;" x="57.6" xlink:href="#mc921e06894" y="198.72"/>
      </g>
     </g>
     <g id="text_18">
      <!-- 7 -->
      <g transform="translate(49.156697 200.927787)rotate(-90)scale(0.0694 -0.0694)">
       <use xlink:href="#DejaVuSerif-37"/>
      </g>
     </g>
    </g>
    <g id="ytick_8">
     <g id="line2d_18">
      <g>
       <use style="stroke:#000000;stroke-width:0.8;" x="57.6" xlink:href="#mc921e06894" y="222.912"/>
      </g>
     </g>
     <g id="text_19">
      <!-- 8 -->
      <g transform="translate(49.156697 225.119788)rotate(-90)scale(0.0694 -0.0694)">
       <use xlink:href="#DejaVuSerif-38"/>
      </g>
     </g>
    </g>
    <g id="ytick_9">
     <g id="line2d_19">
      <g>
       <use style="stroke:#000000;stroke-width:0.8;" x="57.6" xlink:href="#mc921e06894" y="247.104"/>
      </g>
     </g>
     <g id="text_20">
      <!-- 9 -->
      <g transform="translate(49.156697 249.311787)rotate(-90)scale(0.0694 -0.0694)">
       <use xlink:href="#DejaVuSerif-39"/>
      </g>
     </g>
    </g>
    <g id="ytick_10">
     <g id="line2d_20">
      <g>
       <use style="stroke:#000000;stroke-width:0.8;" x="57.6" xlink:href="#mc921e06894" y="271.296"/>
      </g>
     </g>
     <g id="text_21">
      <!-- 10 -->
      <g transform="translate(49.156697 275.711575)rotate(-90)scale(0.0694 -0.0694)">
       <use xlink:href="#DejaVuSerif-31"/>
       <use x="63.623047" xlink:href="#DejaVuSerif-30"/>
      </g>
     </g>
    </g>
    <g id="text_22">
     <!-- $r_{ j | cc}$ -->
     <g transform="translate(36.583381 182.728)rotate(-90)scale(0.1 -0.1)">
      <defs>
       <path d="M 2853 2969 
Q 2766 3016 2653 3041 
Q 2541 3066 2413 3066 
Q 1953 3066 1609 2717 
Q 1266 2369 1153 1784 
L 800 0 
L 225 0 
L 909 3500 
L 1484 3500 
L 1375 2956 
Q 1603 3259 1920 3421 
Q 2238 3584 2597 3584 
Q 2691 3584 2781 3573 
Q 2872 3563 2963 3538 
L 2853 2969 
z
" id="DejaVuSans-Oblique-72" transform="scale(0.015625)"/>
       <path d="M 928 3500 
L 1503 3500 
L 813 -63 
L 809 -78 
Q 694 -675 544 -897 
Q 403 -1106 132 -1218 
Q -138 -1331 -506 -1331 
L -722 -1331 
L -628 -844 
L -481 -844 
Q -144 -844 -1 -703 
Q 141 -563 238 -63 
L 928 3500 
z
M 1197 4863 
L 1772 4863 
L 1631 4134 
L 1056 4134 
L 1197 4863 
z
" id="DejaVuSans-Oblique-6a" transform="scale(0.015625)"/>
       <path d="M 1344 4891 
L 1344 -1509 
L 813 -1509 
L 813 4891 
L 1344 4891 
z
" id="DejaVuSans-7c" transform="scale(0.015625)"/>
      </defs>
      <use xlink:href="#DejaVuSans-Oblique-72"/>
      <use transform="translate(41.113281 -16.40625)scale(0.7)" xlink:href="#DejaVuSans-Oblique-6a"/>
      <use transform="translate(60.561523 -16.40625)scale(0.7)" xlink:href="#DejaVuSans-7c"/>
      <use transform="translate(84.145508 -16.40625)scale(0.7)" xlink:href="#DejaVuSans-Oblique-63"/>
      <use transform="translate(122.631836 -16.40625)scale(0.7)" xlink:href="#DejaVuSans-Oblique-63"/>
     </g>
    </g>
   </g>
   <g id="text_23">
    <!-- 0.00 -->
    <g style="fill:#ffffff;" transform="translate(29.121179 32.411313)scale(0.11 -0.11)">
     <defs>
      <path d="M 603 325 
Q 603 500 722 622 
Q 841 744 1019 744 
Q 1191 744 1312 622 
Q 1434 500 1434 325 
Q 1434 153 1312 31 
Q 1191 -91 1019 -91 
Q 841 -91 722 29 
Q 603 150 603 325 
z
" id="DejaVuSerif-2e" transform="scale(0.015625)"/>
     </defs>
     <use xlink:href="#DejaVuSerif-30"/>
     <use x="63.623047" xlink:href="#DejaVuSerif-2e"/>
     <use x="95.410156" xlink:href="#DejaVuSerif-30"/>
     <use x="159.033203" xlink:href="#DejaVuSerif-30"/>
    </g>
   </g>
   <g id="text_24">
    <!-- -0.07 -->
    <g style="fill:#ffffff;" transform="translate(59.727805 32.411313)scale(0.11 -0.11)">
     <defs>
      <path d="M 281 1959 
L 1881 1959 
L 1881 1472 
L 281 1472 
L 281 1959 
z
" id="DejaVuSerif-2d" transform="scale(0.015625)"/>
     </defs>
     <use xlink:href="#DejaVuSerif-2d"/>
     <use x="33.789062" xlink:href="#DejaVuSerif-30"/>
     <use x="97.412109" xlink:href="#DejaVuSerif-2e"/>
     <use x="129.199219" xlink:href="#DejaVuSerif-30"/>
     <use x="192.822266" xlink:href="#DejaVuSerif-37"/>
    </g>
   </g>
   <g id="text_25">
    <!-- -0.10 -->
    <g style="fill:#ffffff;" transform="translate(92.19326 32.411313)scale(0.11 -0.11)">
     <use xlink:href="#DejaVuSerif-2d"/>
     <use x="33.789062" xlink:href="#DejaVuSerif-30"/>
     <use x="97.412109" xlink:href="#DejaVuSerif-2e"/>
     <use x="129.199219" xlink:href="#DejaVuSerif-31"/>
     <use x="192.822266" xlink:href="#DejaVuSerif-30"/>
    </g>
   </g>
   <g id="text_26">
    <!-- -0.13 -->
    <g style="fill:#ffffff;" transform="translate(124.658714 32.411313)scale(0.11 -0.11)">
     <use xlink:href="#DejaVuSerif-2d"/>
     <use x="33.789062" xlink:href="#DejaVuSerif-30"/>
     <use x="97.412109" xlink:href="#DejaVuSerif-2e"/>
     <use x="129.199219" xlink:href="#DejaVuSerif-31"/>
     <use x="192.822266" xlink:href="#DejaVuSerif-33"/>
    </g>
   </g>
   <g id="text_27">
    <!-- -0.15 -->
    <g style="fill:#ffffff;" transform="translate(157.124169 32.411313)scale(0.11 -0.11)">
     <use xlink:href="#DejaVuSerif-2d"/>
     <use x="33.789062" xlink:href="#DejaVuSerif-30"/>
     <use x="97.412109" xlink:href="#DejaVuSerif-2e"/>
     <use x="129.199219" xlink:href="#DejaVuSerif-31"/>
     <use x="192.822266" xlink:href="#DejaVuSerif-35"/>
    </g>
   </g>
   <g id="text_28">
    <!-- -0.16 -->
    <g style="fill:#ffffff;" transform="translate(189.589624 32.411313)scale(0.11 -0.11)">
     <use xlink:href="#DejaVuSerif-2d"/>
     <use x="33.789062" xlink:href="#DejaVuSerif-30"/>
     <use x="97.412109" xlink:href="#DejaVuSerif-2e"/>
     <use x="129.199219" xlink:href="#DejaVuSerif-31"/>
     <use x="192.822266" xlink:href="#DejaVuSerif-36"/>
    </g>
   </g>
   <g id="text_29">
    <!-- -0.18 -->
    <g style="fill:#ffffff;" transform="translate(222.055078 32.411313)scale(0.11 -0.11)">
     <use xlink:href="#DejaVuSerif-2d"/>
     <use x="33.789062" xlink:href="#DejaVuSerif-30"/>
     <use x="97.412109" xlink:href="#DejaVuSerif-2e"/>
     <use x="129.199219" xlink:href="#DejaVuSerif-31"/>
     <use x="192.822266" xlink:href="#DejaVuSerif-38"/>
    </g>
   </g>
   <g id="text_30">
    <!-- -0.19 -->
    <g style="fill:#ffffff;" transform="translate(254.520533 32.411313)scale(0.11 -0.11)">
     <use xlink:href="#DejaVuSerif-2d"/>
     <use x="33.789062" xlink:href="#DejaVuSerif-30"/>
     <use x="97.412109" xlink:href="#DejaVuSerif-2e"/>
     <use x="129.199219" xlink:href="#DejaVuSerif-31"/>
     <use x="192.822266" xlink:href="#DejaVuSerif-39"/>
    </g>
   </g>
   <g id="text_31">
    <!-- -0.20 -->
    <g style="fill:#ffffff;" transform="translate(286.985987 32.411313)scale(0.11 -0.11)">
     <use xlink:href="#DejaVuSerif-2d"/>
     <use x="33.789062" xlink:href="#DejaVuSerif-30"/>
     <use x="97.412109" xlink:href="#DejaVuSerif-2e"/>
     <use x="129.199219" xlink:href="#DejaVuSerif-32"/>
     <use x="192.822266" xlink:href="#DejaVuSerif-30"/>
    </g>
   </g>
   <g id="text_32">
    <!-- -0.21 -->
    <g style="fill:#ffffff;" transform="translate(319.451442 32.411313)scale(0.11 -0.11)">
     <use xlink:href="#DejaVuSerif-2d"/>
     <use x="33.789062" xlink:href="#DejaVuSerif-30"/>
     <use x="97.412109" xlink:href="#DejaVuSerif-2e"/>
     <use x="129.199219" xlink:href="#DejaVuSerif-32"/>
     <use x="192.822266" xlink:href="#DejaVuSerif-31"/>
    </g>
   </g>
   <g id="text_33">
    <!-- -0.21 -->
    <g style="fill:#ffffff;" transform="translate(351.916896 32.411313)scale(0.11 -0.11)">
     <use xlink:href="#DejaVuSerif-2d"/>
     <use x="33.789062" xlink:href="#DejaVuSerif-30"/>
     <use x="97.412109" xlink:href="#DejaVuSerif-2e"/>
     <use x="129.199219" xlink:href="#DejaVuSerif-32"/>
     <use x="192.822266" xlink:href="#DejaVuSerif-31"/>
    </g>
   </g>
   <g id="text_34">
    <!-- 0.00 -->
    <g style="fill:#ffffff;" transform="translate(29.121179 56.603313)scale(0.11 -0.11)">
     <use xlink:href="#DejaVuSerif-30"/>
     <use x="63.623047" xlink:href="#DejaVuSerif-2e"/>
     <use x="95.410156" xlink:href="#DejaVuSerif-30"/>
     <use x="159.033203" xlink:href="#DejaVuSerif-30"/>
    </g>
   </g>
   <g id="text_35">
    <!-- -0.13 -->
    <g style="fill:#ffffff;" transform="translate(59.727805 56.603313)scale(0.11 -0.11)">
     <use xlink:href="#DejaVuSerif-2d"/>
     <use x="33.789062" xlink:href="#DejaVuSerif-30"/>
     <use x="97.412109" xlink:href="#DejaVuSerif-2e"/>
     <use x="129.199219" xlink:href="#DejaVuSerif-31"/>
     <use x="192.822266" xlink:href="#DejaVuSerif-33"/>
    </g>
   </g>
   <g id="text_36">
    <!-- -0.20 -->
    <g style="fill:#ffffff;" transform="translate(92.19326 56.603313)scale(0.11 -0.11)">
     <use xlink:href="#DejaVuSerif-2d"/>
     <use x="33.789062" xlink:href="#DejaVuSerif-30"/>
     <use x="97.412109" xlink:href="#DejaVuSerif-2e"/>
     <use x="129.199219" xlink:href="#DejaVuSerif-32"/>
     <use x="192.822266" xlink:href="#DejaVuSerif-30"/>
    </g>
   </g>
   <g id="text_37">
    <!-- -0.24 -->
    <g style="fill:#ffffff;" transform="translate(124.658714 56.603313)scale(0.11 -0.11)">
     <use xlink:href="#DejaVuSerif-2d"/>
     <use x="33.789062" xlink:href="#DejaVuSerif-30"/>
     <use x="97.412109" xlink:href="#DejaVuSerif-2e"/>
     <use x="129.199219" xlink:href="#DejaVuSerif-32"/>
     <use x="192.822266" xlink:href="#DejaVuSerif-34"/>
    </g>
   </g>
   <g id="text_38">
    <!-- -0.28 -->
    <g style="fill:#ffffff;" transform="translate(157.124169 56.603313)scale(0.11 -0.11)">
     <use xlink:href="#DejaVuSerif-2d"/>
     <use x="33.789062" xlink:href="#DejaVuSerif-30"/>
     <use x="97.412109" xlink:href="#DejaVuSerif-2e"/>
     <use x="129.199219" xlink:href="#DejaVuSerif-32"/>
     <use x="192.822266" xlink:href="#DejaVuSerif-38"/>
    </g>
   </g>
   <g id="text_39">
    <!-- -0.30 -->
    <g style="fill:#ffffff;" transform="translate(189.589624 56.603313)scale(0.11 -0.11)">
     <use xlink:href="#DejaVuSerif-2d"/>
     <use x="33.789062" xlink:href="#DejaVuSerif-30"/>
     <use x="97.412109" xlink:href="#DejaVuSerif-2e"/>
     <use x="129.199219" xlink:href="#DejaVuSerif-33"/>
     <use x="192.822266" xlink:href="#DejaVuSerif-30"/>
    </g>
   </g>
   <g id="text_40">
    <!-- -0.32 -->
    <g style="fill:#ffffff;" transform="translate(222.055078 56.603313)scale(0.11 -0.11)">
     <use xlink:href="#DejaVuSerif-2d"/>
     <use x="33.789062" xlink:href="#DejaVuSerif-30"/>
     <use x="97.412109" xlink:href="#DejaVuSerif-2e"/>
     <use x="129.199219" xlink:href="#DejaVuSerif-33"/>
     <use x="192.822266" xlink:href="#DejaVuSerif-32"/>
    </g>
   </g>
   <g id="text_41">
    <!-- -0.34 -->
    <g style="fill:#ffffff;" transform="translate(254.520533 56.603313)scale(0.11 -0.11)">
     <use xlink:href="#DejaVuSerif-2d"/>
     <use x="33.789062" xlink:href="#DejaVuSerif-30"/>
     <use x="97.412109" xlink:href="#DejaVuSerif-2e"/>
     <use x="129.199219" xlink:href="#DejaVuSerif-33"/>
     <use x="192.822266" xlink:href="#DejaVuSerif-34"/>
    </g>
   </g>
   <g id="text_42">
    <!-- -0.36 -->
    <g style="fill:#ffffff;" transform="translate(286.985987 56.603313)scale(0.11 -0.11)">
     <use xlink:href="#DejaVuSerif-2d"/>
     <use x="33.789062" xlink:href="#DejaVuSerif-30"/>
     <use x="97.412109" xlink:href="#DejaVuSerif-2e"/>
     <use x="129.199219" xlink:href="#DejaVuSerif-33"/>
     <use x="192.822266" xlink:href="#DejaVuSerif-36"/>
    </g>
   </g>
   <g id="text_43">
    <!-- -0.37 -->
    <g style="fill:#ffffff;" transform="translate(319.451442 56.603313)scale(0.11 -0.11)">
     <use xlink:href="#DejaVuSerif-2d"/>
     <use x="33.789062" xlink:href="#DejaVuSerif-30"/>
     <use x="97.412109" xlink:href="#DejaVuSerif-2e"/>
     <use x="129.199219" xlink:href="#DejaVuSerif-33"/>
     <use x="192.822266" xlink:href="#DejaVuSerif-37"/>
    </g>
   </g>
   <g id="text_44">
    <!-- -0.38 -->
    <g style="fill:#ffffff;" transform="translate(351.916896 56.603313)scale(0.11 -0.11)">
     <use xlink:href="#DejaVuSerif-2d"/>
     <use x="33.789062" xlink:href="#DejaVuSerif-30"/>
     <use x="97.412109" xlink:href="#DejaVuSerif-2e"/>
     <use x="129.199219" xlink:href="#DejaVuSerif-33"/>
     <use x="192.822266" xlink:href="#DejaVuSerif-38"/>
    </g>
   </g>
   <g id="text_45">
    <!-- 0.00 -->
    <g style="fill:#ffffff;" transform="translate(29.121179 80.795313)scale(0.11 -0.11)">
     <use xlink:href="#DejaVuSerif-30"/>
     <use x="63.623047" xlink:href="#DejaVuSerif-2e"/>
     <use x="95.410156" xlink:href="#DejaVuSerif-30"/>
     <use x="159.033203" xlink:href="#DejaVuSerif-30"/>
    </g>
   </g>
   <g id="text_46">
    <!-- -0.19 -->
    <g style="fill:#ffffff;" transform="translate(59.727805 80.795313)scale(0.11 -0.11)">
     <use xlink:href="#DejaVuSerif-2d"/>
     <use x="33.789062" xlink:href="#DejaVuSerif-30"/>
     <use x="97.412109" xlink:href="#DejaVuSerif-2e"/>
     <use x="129.199219" xlink:href="#DejaVuSerif-31"/>
     <use x="192.822266" xlink:href="#DejaVuSerif-39"/>
    </g>
   </g>
   <g id="text_47">
    <!-- -0.28 -->
    <g style="fill:#ffffff;" transform="translate(92.19326 80.795313)scale(0.11 -0.11)">
     <use xlink:href="#DejaVuSerif-2d"/>
     <use x="33.789062" xlink:href="#DejaVuSerif-30"/>
     <use x="97.412109" xlink:href="#DejaVuSerif-2e"/>
     <use x="129.199219" xlink:href="#DejaVuSerif-32"/>
     <use x="192.822266" xlink:href="#DejaVuSerif-38"/>
    </g>
   </g>
   <g id="text_48">
    <!-- -0.34 -->
    <g style="fill:#ffffff;" transform="translate(124.658714 80.795313)scale(0.11 -0.11)">
     <use xlink:href="#DejaVuSerif-2d"/>
     <use x="33.789062" xlink:href="#DejaVuSerif-30"/>
     <use x="97.412109" xlink:href="#DejaVuSerif-2e"/>
     <use x="129.199219" xlink:href="#DejaVuSerif-33"/>
     <use x="192.822266" xlink:href="#DejaVuSerif-34"/>
    </g>
   </g>
   <g id="text_49">
    <!-- -0.38 -->
    <g style="fill:#ffffff;" transform="translate(157.124169 80.795313)scale(0.11 -0.11)">
     <use xlink:href="#DejaVuSerif-2d"/>
     <use x="33.789062" xlink:href="#DejaVuSerif-30"/>
     <use x="97.412109" xlink:href="#DejaVuSerif-2e"/>
     <use x="129.199219" xlink:href="#DejaVuSerif-33"/>
     <use x="192.822266" xlink:href="#DejaVuSerif-38"/>
    </g>
   </g>
   <g id="text_50">
    <!-- -0.42 -->
    <g style="fill:#ffffff;" transform="translate(189.589624 80.795313)scale(0.11 -0.11)">
     <use xlink:href="#DejaVuSerif-2d"/>
     <use x="33.789062" xlink:href="#DejaVuSerif-30"/>
     <use x="97.412109" xlink:href="#DejaVuSerif-2e"/>
     <use x="129.199219" xlink:href="#DejaVuSerif-34"/>
     <use x="192.822266" xlink:href="#DejaVuSerif-32"/>
    </g>
   </g>
   <g id="text_51">
    <!-- -0.44 -->
    <g style="fill:#ffffff;" transform="translate(222.055078 80.795313)scale(0.11 -0.11)">
     <use xlink:href="#DejaVuSerif-2d"/>
     <use x="33.789062" xlink:href="#DejaVuSerif-30"/>
     <use x="97.412109" xlink:href="#DejaVuSerif-2e"/>
     <use x="129.199219" xlink:href="#DejaVuSerif-34"/>
     <use x="192.822266" xlink:href="#DejaVuSerif-34"/>
    </g>
   </g>
   <g id="text_52">
    <!-- -0.46 -->
    <g style="fill:#ffffff;" transform="translate(254.520533 80.795313)scale(0.11 -0.11)">
     <use xlink:href="#DejaVuSerif-2d"/>
     <use x="33.789062" xlink:href="#DejaVuSerif-30"/>
     <use x="97.412109" xlink:href="#DejaVuSerif-2e"/>
     <use x="129.199219" xlink:href="#DejaVuSerif-34"/>
     <use x="192.822266" xlink:href="#DejaVuSerif-36"/>
    </g>
   </g>
   <g id="text_53">
    <!-- -0.48 -->
    <g style="fill:#ffffff;" transform="translate(286.985987 80.795313)scale(0.11 -0.11)">
     <use xlink:href="#DejaVuSerif-2d"/>
     <use x="33.789062" xlink:href="#DejaVuSerif-30"/>
     <use x="97.412109" xlink:href="#DejaVuSerif-2e"/>
     <use x="129.199219" xlink:href="#DejaVuSerif-34"/>
     <use x="192.822266" xlink:href="#DejaVuSerif-38"/>
    </g>
   </g>
   <g id="text_54">
    <!-- -0.50 -->
    <g style="fill:#ffffff;" transform="translate(319.451442 80.795313)scale(0.11 -0.11)">
     <use xlink:href="#DejaVuSerif-2d"/>
     <use x="33.789062" xlink:href="#DejaVuSerif-30"/>
     <use x="97.412109" xlink:href="#DejaVuSerif-2e"/>
     <use x="129.199219" xlink:href="#DejaVuSerif-35"/>
     <use x="192.822266" xlink:href="#DejaVuSerif-30"/>
    </g>
   </g>
   <g id="text_55">
    <!-- -0.51 -->
    <g style="fill:#ffffff;" transform="translate(351.916896 80.795313)scale(0.11 -0.11)">
     <use xlink:href="#DejaVuSerif-2d"/>
     <use x="33.789062" xlink:href="#DejaVuSerif-30"/>
     <use x="97.412109" xlink:href="#DejaVuSerif-2e"/>
     <use x="129.199219" xlink:href="#DejaVuSerif-35"/>
     <use x="192.822266" xlink:href="#DejaVuSerif-31"/>
    </g>
   </g>
   <g id="text_56">
    <!-- 0.00 -->
    <g style="fill:#ffffff;" transform="translate(29.121179 104.987313)scale(0.11 -0.11)">
     <use xlink:href="#DejaVuSerif-30"/>
     <use x="63.623047" xlink:href="#DejaVuSerif-2e"/>
     <use x="95.410156" xlink:href="#DejaVuSerif-30"/>
     <use x="159.033203" xlink:href="#DejaVuSerif-30"/>
    </g>
   </g>
   <g id="text_57">
    <!-- -0.24 -->
    <g style="fill:#ffffff;" transform="translate(59.727805 104.987313)scale(0.11 -0.11)">
     <use xlink:href="#DejaVuSerif-2d"/>
     <use x="33.789062" xlink:href="#DejaVuSerif-30"/>
     <use x="97.412109" xlink:href="#DejaVuSerif-2e"/>
     <use x="129.199219" xlink:href="#DejaVuSerif-32"/>
     <use x="192.822266" xlink:href="#DejaVuSerif-34"/>
    </g>
   </g>
   <g id="text_58">
    <!-- -0.36 -->
    <g style="fill:#ffffff;" transform="translate(92.19326 104.987313)scale(0.11 -0.11)">
     <use xlink:href="#DejaVuSerif-2d"/>
     <use x="33.789062" xlink:href="#DejaVuSerif-30"/>
     <use x="97.412109" xlink:href="#DejaVuSerif-2e"/>
     <use x="129.199219" xlink:href="#DejaVuSerif-33"/>
     <use x="192.822266" xlink:href="#DejaVuSerif-36"/>
    </g>
   </g>
   <g id="text_59">
    <!-- -0.43 -->
    <g style="fill:#ffffff;" transform="translate(124.658714 104.987313)scale(0.11 -0.11)">
     <use xlink:href="#DejaVuSerif-2d"/>
     <use x="33.789062" xlink:href="#DejaVuSerif-30"/>
     <use x="97.412109" xlink:href="#DejaVuSerif-2e"/>
     <use x="129.199219" xlink:href="#DejaVuSerif-34"/>
     <use x="192.822266" xlink:href="#DejaVuSerif-33"/>
    </g>
   </g>
   <g id="text_60">
    <!-- -0.47 -->
    <g style="fill:#ffffff;" transform="translate(157.124169 104.987313)scale(0.11 -0.11)">
     <use xlink:href="#DejaVuSerif-2d"/>
     <use x="33.789062" xlink:href="#DejaVuSerif-30"/>
     <use x="97.412109" xlink:href="#DejaVuSerif-2e"/>
     <use x="129.199219" xlink:href="#DejaVuSerif-34"/>
     <use x="192.822266" xlink:href="#DejaVuSerif-37"/>
    </g>
   </g>
   <g id="text_61">
    <!-- -0.51 -->
    <g style="fill:#ffffff;" transform="translate(189.589624 104.987313)scale(0.11 -0.11)">
     <use xlink:href="#DejaVuSerif-2d"/>
     <use x="33.789062" xlink:href="#DejaVuSerif-30"/>
     <use x="97.412109" xlink:href="#DejaVuSerif-2e"/>
     <use x="129.199219" xlink:href="#DejaVuSerif-35"/>
     <use x="192.822266" xlink:href="#DejaVuSerif-31"/>
    </g>
   </g>
   <g id="text_62">
    <!-- -0.54 -->
    <g style="fill:#ffffff;" transform="translate(222.055078 104.987313)scale(0.11 -0.11)">
     <use xlink:href="#DejaVuSerif-2d"/>
     <use x="33.789062" xlink:href="#DejaVuSerif-30"/>
     <use x="97.412109" xlink:href="#DejaVuSerif-2e"/>
     <use x="129.199219" xlink:href="#DejaVuSerif-35"/>
     <use x="192.822266" xlink:href="#DejaVuSerif-34"/>
    </g>
   </g>
   <g id="text_63">
    <!-- -0.56 -->
    <g style="fill:#ffffff;" transform="translate(254.520533 104.987313)scale(0.11 -0.11)">
     <use xlink:href="#DejaVuSerif-2d"/>
     <use x="33.789062" xlink:href="#DejaVuSerif-30"/>
     <use x="97.412109" xlink:href="#DejaVuSerif-2e"/>
     <use x="129.199219" xlink:href="#DejaVuSerif-35"/>
     <use x="192.822266" xlink:href="#DejaVuSerif-36"/>
    </g>
   </g>
   <g id="text_64">
    <!-- -0.58 -->
    <g style="fill:#ffffff;" transform="translate(286.985987 104.987313)scale(0.11 -0.11)">
     <use xlink:href="#DejaVuSerif-2d"/>
     <use x="33.789062" xlink:href="#DejaVuSerif-30"/>
     <use x="97.412109" xlink:href="#DejaVuSerif-2e"/>
     <use x="129.199219" xlink:href="#DejaVuSerif-35"/>
     <use x="192.822266" xlink:href="#DejaVuSerif-38"/>
    </g>
   </g>
   <g id="text_65">
    <!-- -0.60 -->
    <g style="fill:#ffffff;" transform="translate(319.451442 104.987313)scale(0.11 -0.11)">
     <use xlink:href="#DejaVuSerif-2d"/>
     <use x="33.789062" xlink:href="#DejaVuSerif-30"/>
     <use x="97.412109" xlink:href="#DejaVuSerif-2e"/>
     <use x="129.199219" xlink:href="#DejaVuSerif-36"/>
     <use x="192.822266" xlink:href="#DejaVuSerif-30"/>
    </g>
   </g>
   <g id="text_66">
    <!-- -0.62 -->
    <g style="fill:#ffffff;" transform="translate(351.916896 104.987313)scale(0.11 -0.11)">
     <use xlink:href="#DejaVuSerif-2d"/>
     <use x="33.789062" xlink:href="#DejaVuSerif-30"/>
     <use x="97.412109" xlink:href="#DejaVuSerif-2e"/>
     <use x="129.199219" xlink:href="#DejaVuSerif-36"/>
     <use x="192.822266" xlink:href="#DejaVuSerif-32"/>
    </g>
   </g>
   <g id="text_67">
    <!-- 0.00 -->
    <g style="fill:#ffffff;" transform="translate(29.121179 129.179313)scale(0.11 -0.11)">
     <use xlink:href="#DejaVuSerif-30"/>
     <use x="63.623047" xlink:href="#DejaVuSerif-2e"/>
     <use x="95.410156" xlink:href="#DejaVuSerif-30"/>
     <use x="159.033203" xlink:href="#DejaVuSerif-30"/>
    </g>
   </g>
   <g id="text_68">
    <!-- -0.29 -->
    <g style="fill:#ffffff;" transform="translate(59.727805 129.179313)scale(0.11 -0.11)">
     <use xlink:href="#DejaVuSerif-2d"/>
     <use x="33.789062" xlink:href="#DejaVuSerif-30"/>
     <use x="97.412109" xlink:href="#DejaVuSerif-2e"/>
     <use x="129.199219" xlink:href="#DejaVuSerif-32"/>
     <use x="192.822266" xlink:href="#DejaVuSerif-39"/>
    </g>
   </g>
   <g id="text_69">
    <!-- -0.42 -->
    <g style="fill:#ffffff;" transform="translate(92.19326 129.179313)scale(0.11 -0.11)">
     <use xlink:href="#DejaVuSerif-2d"/>
     <use x="33.789062" xlink:href="#DejaVuSerif-30"/>
     <use x="97.412109" xlink:href="#DejaVuSerif-2e"/>
     <use x="129.199219" xlink:href="#DejaVuSerif-34"/>
     <use x="192.822266" xlink:href="#DejaVuSerif-32"/>
    </g>
   </g>
   <g id="text_70">
    <!-- -0.50 -->
    <g style="fill:#ffffff;" transform="translate(124.658714 129.179313)scale(0.11 -0.11)">
     <use xlink:href="#DejaVuSerif-2d"/>
     <use x="33.789062" xlink:href="#DejaVuSerif-30"/>
     <use x="97.412109" xlink:href="#DejaVuSerif-2e"/>
     <use x="129.199219" xlink:href="#DejaVuSerif-35"/>
     <use x="192.822266" xlink:href="#DejaVuSerif-30"/>
    </g>
   </g>
   <g id="text_71">
    <!-- -0.55 -->
    <g style="fill:#ffffff;" transform="translate(157.124169 129.179313)scale(0.11 -0.11)">
     <use xlink:href="#DejaVuSerif-2d"/>
     <use x="33.789062" xlink:href="#DejaVuSerif-30"/>
     <use x="97.412109" xlink:href="#DejaVuSerif-2e"/>
     <use x="129.199219" xlink:href="#DejaVuSerif-35"/>
     <use x="192.822266" xlink:href="#DejaVuSerif-35"/>
    </g>
   </g>
   <g id="text_72">
    <!-- -0.59 -->
    <g style="fill:#ffffff;" transform="translate(189.589624 129.179313)scale(0.11 -0.11)">
     <use xlink:href="#DejaVuSerif-2d"/>
     <use x="33.789062" xlink:href="#DejaVuSerif-30"/>
     <use x="97.412109" xlink:href="#DejaVuSerif-2e"/>
     <use x="129.199219" xlink:href="#DejaVuSerif-35"/>
     <use x="192.822266" xlink:href="#DejaVuSerif-39"/>
    </g>
   </g>
   <g id="text_73">
    <!-- -0.62 -->
    <g style="fill:#ffffff;" transform="translate(222.055078 129.179313)scale(0.11 -0.11)">
     <use xlink:href="#DejaVuSerif-2d"/>
     <use x="33.789062" xlink:href="#DejaVuSerif-30"/>
     <use x="97.412109" xlink:href="#DejaVuSerif-2e"/>
     <use x="129.199219" xlink:href="#DejaVuSerif-36"/>
     <use x="192.822266" xlink:href="#DejaVuSerif-32"/>
    </g>
   </g>
   <g id="text_74">
    <!-- -0.65 -->
    <g style="fill:#ffffff;" transform="translate(254.520533 129.179313)scale(0.11 -0.11)">
     <use xlink:href="#DejaVuSerif-2d"/>
     <use x="33.789062" xlink:href="#DejaVuSerif-30"/>
     <use x="97.412109" xlink:href="#DejaVuSerif-2e"/>
     <use x="129.199219" xlink:href="#DejaVuSerif-36"/>
     <use x="192.822266" xlink:href="#DejaVuSerif-35"/>
    </g>
   </g>
   <g id="text_75">
    <!-- -0.67 -->
    <g style="fill:#ffffff;" transform="translate(286.985987 129.179313)scale(0.11 -0.11)">
     <use xlink:href="#DejaVuSerif-2d"/>
     <use x="33.789062" xlink:href="#DejaVuSerif-30"/>
     <use x="97.412109" xlink:href="#DejaVuSerif-2e"/>
     <use x="129.199219" xlink:href="#DejaVuSerif-36"/>
     <use x="192.822266" xlink:href="#DejaVuSerif-37"/>
    </g>
   </g>
   <g id="text_76">
    <!-- -0.68 -->
    <g style="fill:#ffffff;" transform="translate(319.451442 129.179313)scale(0.11 -0.11)">
     <use xlink:href="#DejaVuSerif-2d"/>
     <use x="33.789062" xlink:href="#DejaVuSerif-30"/>
     <use x="97.412109" xlink:href="#DejaVuSerif-2e"/>
     <use x="129.199219" xlink:href="#DejaVuSerif-36"/>
     <use x="192.822266" xlink:href="#DejaVuSerif-38"/>
    </g>
   </g>
   <g id="text_77">
    <!-- -0.70 -->
    <g style="fill:#ffffff;" transform="translate(351.916896 129.179313)scale(0.11 -0.11)">
     <use xlink:href="#DejaVuSerif-2d"/>
     <use x="33.789062" xlink:href="#DejaVuSerif-30"/>
     <use x="97.412109" xlink:href="#DejaVuSerif-2e"/>
     <use x="129.199219" xlink:href="#DejaVuSerif-37"/>
     <use x="192.822266" xlink:href="#DejaVuSerif-30"/>
    </g>
   </g>
   <g id="text_78">
    <!-- 0.00 -->
    <g style="fill:#ffffff;" transform="translate(29.121179 153.371313)scale(0.11 -0.11)">
     <use xlink:href="#DejaVuSerif-30"/>
     <use x="63.623047" xlink:href="#DejaVuSerif-2e"/>
     <use x="95.410156" xlink:href="#DejaVuSerif-30"/>
     <use x="159.033203" xlink:href="#DejaVuSerif-30"/>
    </g>
   </g>
   <g id="text_79">
    <!-- -0.34 -->
    <g style="fill:#ffffff;" transform="translate(59.727805 153.371313)scale(0.11 -0.11)">
     <use xlink:href="#DejaVuSerif-2d"/>
     <use x="33.789062" xlink:href="#DejaVuSerif-30"/>
     <use x="97.412109" xlink:href="#DejaVuSerif-2e"/>
     <use x="129.199219" xlink:href="#DejaVuSerif-33"/>
     <use x="192.822266" xlink:href="#DejaVuSerif-34"/>
    </g>
   </g>
   <g id="text_80">
    <!-- -0.48 -->
    <g style="fill:#ffffff;" transform="translate(92.19326 153.371313)scale(0.11 -0.11)">
     <use xlink:href="#DejaVuSerif-2d"/>
     <use x="33.789062" xlink:href="#DejaVuSerif-30"/>
     <use x="97.412109" xlink:href="#DejaVuSerif-2e"/>
     <use x="129.199219" xlink:href="#DejaVuSerif-34"/>
     <use x="192.822266" xlink:href="#DejaVuSerif-38"/>
    </g>
   </g>
   <g id="text_81">
    <!-- -0.56 -->
    <g style="fill:#ffffff;" transform="translate(124.658714 153.371313)scale(0.11 -0.11)">
     <use xlink:href="#DejaVuSerif-2d"/>
     <use x="33.789062" xlink:href="#DejaVuSerif-30"/>
     <use x="97.412109" xlink:href="#DejaVuSerif-2e"/>
     <use x="129.199219" xlink:href="#DejaVuSerif-35"/>
     <use x="192.822266" xlink:href="#DejaVuSerif-36"/>
    </g>
   </g>
   <g id="text_82">
    <!-- -0.62 -->
    <g style="fill:#ffffff;" transform="translate(157.124169 153.371313)scale(0.11 -0.11)">
     <use xlink:href="#DejaVuSerif-2d"/>
     <use x="33.789062" xlink:href="#DejaVuSerif-30"/>
     <use x="97.412109" xlink:href="#DejaVuSerif-2e"/>
     <use x="129.199219" xlink:href="#DejaVuSerif-36"/>
     <use x="192.822266" xlink:href="#DejaVuSerif-32"/>
    </g>
   </g>
   <g id="text_83">
    <!-- -0.66 -->
    <g style="fill:#ffffff;" transform="translate(189.589624 153.371313)scale(0.11 -0.11)">
     <use xlink:href="#DejaVuSerif-2d"/>
     <use x="33.789062" xlink:href="#DejaVuSerif-30"/>
     <use x="97.412109" xlink:href="#DejaVuSerif-2e"/>
     <use x="129.199219" xlink:href="#DejaVuSerif-36"/>
     <use x="192.822266" xlink:href="#DejaVuSerif-36"/>
    </g>
   </g>
   <g id="text_84">
    <!-- -0.69 -->
    <g style="fill:#ffffff;" transform="translate(222.055078 153.371313)scale(0.11 -0.11)">
     <use xlink:href="#DejaVuSerif-2d"/>
     <use x="33.789062" xlink:href="#DejaVuSerif-30"/>
     <use x="97.412109" xlink:href="#DejaVuSerif-2e"/>
     <use x="129.199219" xlink:href="#DejaVuSerif-36"/>
     <use x="192.822266" xlink:href="#DejaVuSerif-39"/>
    </g>
   </g>
   <g id="text_85">
    <!-- -0.71 -->
    <g style="fill:#ffffff;" transform="translate(254.520533 153.371313)scale(0.11 -0.11)">
     <use xlink:href="#DejaVuSerif-2d"/>
     <use x="33.789062" xlink:href="#DejaVuSerif-30"/>
     <use x="97.412109" xlink:href="#DejaVuSerif-2e"/>
     <use x="129.199219" xlink:href="#DejaVuSerif-37"/>
     <use x="192.822266" xlink:href="#DejaVuSerif-31"/>
    </g>
   </g>
   <g id="text_86">
    <!-- -0.73 -->
    <g style="fill:#ffffff;" transform="translate(286.985987 153.371313)scale(0.11 -0.11)">
     <use xlink:href="#DejaVuSerif-2d"/>
     <use x="33.789062" xlink:href="#DejaVuSerif-30"/>
     <use x="97.412109" xlink:href="#DejaVuSerif-2e"/>
     <use x="129.199219" xlink:href="#DejaVuSerif-37"/>
     <use x="192.822266" xlink:href="#DejaVuSerif-33"/>
    </g>
   </g>
   <g id="text_87">
    <!-- -0.75 -->
    <g style="fill:#ffffff;" transform="translate(319.451442 153.371313)scale(0.11 -0.11)">
     <use xlink:href="#DejaVuSerif-2d"/>
     <use x="33.789062" xlink:href="#DejaVuSerif-30"/>
     <use x="97.412109" xlink:href="#DejaVuSerif-2e"/>
     <use x="129.199219" xlink:href="#DejaVuSerif-37"/>
     <use x="192.822266" xlink:href="#DejaVuSerif-35"/>
    </g>
   </g>
   <g id="text_88">
    <!-- -0.76 -->
    <g style="fill:#ffffff;" transform="translate(351.916896 153.371313)scale(0.11 -0.11)">
     <use xlink:href="#DejaVuSerif-2d"/>
     <use x="33.789062" xlink:href="#DejaVuSerif-30"/>
     <use x="97.412109" xlink:href="#DejaVuSerif-2e"/>
     <use x="129.199219" xlink:href="#DejaVuSerif-37"/>
     <use x="192.822266" xlink:href="#DejaVuSerif-36"/>
    </g>
   </g>
   <g id="text_89">
    <!-- 0.00 -->
    <g style="fill:#ffffff;" transform="translate(29.121179 177.563313)scale(0.11 -0.11)">
     <use xlink:href="#DejaVuSerif-30"/>
     <use x="63.623047" xlink:href="#DejaVuSerif-2e"/>
     <use x="95.410156" xlink:href="#DejaVuSerif-30"/>
     <use x="159.033203" xlink:href="#DejaVuSerif-30"/>
    </g>
   </g>
   <g id="text_90">
    <!-- -0.38 -->
    <g style="fill:#ffffff;" transform="translate(59.727805 177.563313)scale(0.11 -0.11)">
     <use xlink:href="#DejaVuSerif-2d"/>
     <use x="33.789062" xlink:href="#DejaVuSerif-30"/>
     <use x="97.412109" xlink:href="#DejaVuSerif-2e"/>
     <use x="129.199219" xlink:href="#DejaVuSerif-33"/>
     <use x="192.822266" xlink:href="#DejaVuSerif-38"/>
    </g>
   </g>
   <g id="text_91">
    <!-- -0.54 -->
    <g style="fill:#ffffff;" transform="translate(92.19326 177.563313)scale(0.11 -0.11)">
     <use xlink:href="#DejaVuSerif-2d"/>
     <use x="33.789062" xlink:href="#DejaVuSerif-30"/>
     <use x="97.412109" xlink:href="#DejaVuSerif-2e"/>
     <use x="129.199219" xlink:href="#DejaVuSerif-35"/>
     <use x="192.822266" xlink:href="#DejaVuSerif-34"/>
    </g>
   </g>
   <g id="text_92">
    <!-- -0.62 -->
    <g style="fill:#ffffff;" transform="translate(124.658714 177.563313)scale(0.11 -0.11)">
     <use xlink:href="#DejaVuSerif-2d"/>
     <use x="33.789062" xlink:href="#DejaVuSerif-30"/>
     <use x="97.412109" xlink:href="#DejaVuSerif-2e"/>
     <use x="129.199219" xlink:href="#DejaVuSerif-36"/>
     <use x="192.822266" xlink:href="#DejaVuSerif-32"/>
    </g>
   </g>
   <g id="text_93">
    <!-- -0.68 -->
    <g style="fill:#ffffff;" transform="translate(157.124169 177.563313)scale(0.11 -0.11)">
     <use xlink:href="#DejaVuSerif-2d"/>
     <use x="33.789062" xlink:href="#DejaVuSerif-30"/>
     <use x="97.412109" xlink:href="#DejaVuSerif-2e"/>
     <use x="129.199219" xlink:href="#DejaVuSerif-36"/>
     <use x="192.822266" xlink:href="#DejaVuSerif-38"/>
    </g>
   </g>
   <g id="text_94">
    <!-- -0.71 -->
    <g style="fill:#ffffff;" transform="translate(189.589624 177.563313)scale(0.11 -0.11)">
     <use xlink:href="#DejaVuSerif-2d"/>
     <use x="33.789062" xlink:href="#DejaVuSerif-30"/>
     <use x="97.412109" xlink:href="#DejaVuSerif-2e"/>
     <use x="129.199219" xlink:href="#DejaVuSerif-37"/>
     <use x="192.822266" xlink:href="#DejaVuSerif-31"/>
    </g>
   </g>
   <g id="text_95">
    <!-- -0.74 -->
    <g style="fill:#ffffff;" transform="translate(222.055078 177.563313)scale(0.11 -0.11)">
     <use xlink:href="#DejaVuSerif-2d"/>
     <use x="33.789062" xlink:href="#DejaVuSerif-30"/>
     <use x="97.412109" xlink:href="#DejaVuSerif-2e"/>
     <use x="129.199219" xlink:href="#DejaVuSerif-37"/>
     <use x="192.822266" xlink:href="#DejaVuSerif-34"/>
    </g>
   </g>
   <g id="text_96">
    <!-- -0.77 -->
    <g style="fill:#ffffff;" transform="translate(254.520533 177.563313)scale(0.11 -0.11)">
     <use xlink:href="#DejaVuSerif-2d"/>
     <use x="33.789062" xlink:href="#DejaVuSerif-30"/>
     <use x="97.412109" xlink:href="#DejaVuSerif-2e"/>
     <use x="129.199219" xlink:href="#DejaVuSerif-37"/>
     <use x="192.822266" xlink:href="#DejaVuSerif-37"/>
    </g>
   </g>
   <g id="text_97">
    <!-- -0.79 -->
    <g style="fill:#ffffff;" transform="translate(286.985987 177.563313)scale(0.11 -0.11)">
     <use xlink:href="#DejaVuSerif-2d"/>
     <use x="33.789062" xlink:href="#DejaVuSerif-30"/>
     <use x="97.412109" xlink:href="#DejaVuSerif-2e"/>
     <use x="129.199219" xlink:href="#DejaVuSerif-37"/>
     <use x="192.822266" xlink:href="#DejaVuSerif-39"/>
    </g>
   </g>
   <g id="text_98">
    <!-- -0.80 -->
    <g style="fill:#262626;" transform="translate(319.451442 177.563313)scale(0.11 -0.11)">
     <use xlink:href="#DejaVuSerif-2d"/>
     <use x="33.789062" xlink:href="#DejaVuSerif-30"/>
     <use x="97.412109" xlink:href="#DejaVuSerif-2e"/>
     <use x="129.199219" xlink:href="#DejaVuSerif-38"/>
     <use x="192.822266" xlink:href="#DejaVuSerif-30"/>
    </g>
   </g>
   <g id="text_99">
    <!-- -0.81 -->
    <g style="fill:#262626;" transform="translate(351.916896 177.563313)scale(0.11 -0.11)">
     <use xlink:href="#DejaVuSerif-2d"/>
     <use x="33.789062" xlink:href="#DejaVuSerif-30"/>
     <use x="97.412109" xlink:href="#DejaVuSerif-2e"/>
     <use x="129.199219" xlink:href="#DejaVuSerif-38"/>
     <use x="192.822266" xlink:href="#DejaVuSerif-31"/>
    </g>
   </g>
   <g id="text_100">
    <!-- 0.00 -->
    <g style="fill:#ffffff;" transform="translate(29.121179 201.755313)scale(0.11 -0.11)">
     <use xlink:href="#DejaVuSerif-30"/>
     <use x="63.623047" xlink:href="#DejaVuSerif-2e"/>
     <use x="95.410156" xlink:href="#DejaVuSerif-30"/>
     <use x="159.033203" xlink:href="#DejaVuSerif-30"/>
    </g>
   </g>
   <g id="text_101">
    <!-- -0.43 -->
    <g style="fill:#ffffff;" transform="translate(59.727805 201.755313)scale(0.11 -0.11)">
     <use xlink:href="#DejaVuSerif-2d"/>
     <use x="33.789062" xlink:href="#DejaVuSerif-30"/>
     <use x="97.412109" xlink:href="#DejaVuSerif-2e"/>
     <use x="129.199219" xlink:href="#DejaVuSerif-34"/>
     <use x="192.822266" xlink:href="#DejaVuSerif-33"/>
    </g>
   </g>
   <g id="text_102">
    <!-- -0.58 -->
    <g style="fill:#ffffff;" transform="translate(92.19326 201.755313)scale(0.11 -0.11)">
     <use xlink:href="#DejaVuSerif-2d"/>
     <use x="33.789062" xlink:href="#DejaVuSerif-30"/>
     <use x="97.412109" xlink:href="#DejaVuSerif-2e"/>
     <use x="129.199219" xlink:href="#DejaVuSerif-35"/>
     <use x="192.822266" xlink:href="#DejaVuSerif-38"/>
    </g>
   </g>
   <g id="text_103">
    <!-- -0.67 -->
    <g style="fill:#ffffff;" transform="translate(124.658714 201.755313)scale(0.11 -0.11)">
     <use xlink:href="#DejaVuSerif-2d"/>
     <use x="33.789062" xlink:href="#DejaVuSerif-30"/>
     <use x="97.412109" xlink:href="#DejaVuSerif-2e"/>
     <use x="129.199219" xlink:href="#DejaVuSerif-36"/>
     <use x="192.822266" xlink:href="#DejaVuSerif-37"/>
    </g>
   </g>
   <g id="text_104">
    <!-- -0.72 -->
    <g style="fill:#ffffff;" transform="translate(157.124169 201.755313)scale(0.11 -0.11)">
     <use xlink:href="#DejaVuSerif-2d"/>
     <use x="33.789062" xlink:href="#DejaVuSerif-30"/>
     <use x="97.412109" xlink:href="#DejaVuSerif-2e"/>
     <use x="129.199219" xlink:href="#DejaVuSerif-37"/>
     <use x="192.822266" xlink:href="#DejaVuSerif-32"/>
    </g>
   </g>
   <g id="text_105">
    <!-- -0.76 -->
    <g style="fill:#ffffff;" transform="translate(189.589624 201.755313)scale(0.11 -0.11)">
     <use xlink:href="#DejaVuSerif-2d"/>
     <use x="33.789062" xlink:href="#DejaVuSerif-30"/>
     <use x="97.412109" xlink:href="#DejaVuSerif-2e"/>
     <use x="129.199219" xlink:href="#DejaVuSerif-37"/>
     <use x="192.822266" xlink:href="#DejaVuSerif-36"/>
    </g>
   </g>
   <g id="text_106">
    <!-- -0.79 -->
    <g style="fill:#262626;" transform="translate(222.055078 201.755313)scale(0.11 -0.11)">
     <use xlink:href="#DejaVuSerif-2d"/>
     <use x="33.789062" xlink:href="#DejaVuSerif-30"/>
     <use x="97.412109" xlink:href="#DejaVuSerif-2e"/>
     <use x="129.199219" xlink:href="#DejaVuSerif-37"/>
     <use x="192.822266" xlink:href="#DejaVuSerif-39"/>
    </g>
   </g>
   <g id="text_107">
    <!-- -0.81 -->
    <g style="fill:#262626;" transform="translate(254.520533 201.755313)scale(0.11 -0.11)">
     <use xlink:href="#DejaVuSerif-2d"/>
     <use x="33.789062" xlink:href="#DejaVuSerif-30"/>
     <use x="97.412109" xlink:href="#DejaVuSerif-2e"/>
     <use x="129.199219" xlink:href="#DejaVuSerif-38"/>
     <use x="192.822266" xlink:href="#DejaVuSerif-31"/>
    </g>
   </g>
   <g id="text_108">
    <!-- -0.83 -->
    <g style="fill:#262626;" transform="translate(286.985987 201.755313)scale(0.11 -0.11)">
     <use xlink:href="#DejaVuSerif-2d"/>
     <use x="33.789062" xlink:href="#DejaVuSerif-30"/>
     <use x="97.412109" xlink:href="#DejaVuSerif-2e"/>
     <use x="129.199219" xlink:href="#DejaVuSerif-38"/>
     <use x="192.822266" xlink:href="#DejaVuSerif-33"/>
    </g>
   </g>
   <g id="text_109">
    <!-- -0.84 -->
    <g style="fill:#262626;" transform="translate(319.451442 201.755313)scale(0.11 -0.11)">
     <use xlink:href="#DejaVuSerif-2d"/>
     <use x="33.789062" xlink:href="#DejaVuSerif-30"/>
     <use x="97.412109" xlink:href="#DejaVuSerif-2e"/>
     <use x="129.199219" xlink:href="#DejaVuSerif-38"/>
     <use x="192.822266" xlink:href="#DejaVuSerif-34"/>
    </g>
   </g>
   <g id="text_110">
    <!-- -0.85 -->
    <g style="fill:#262626;" transform="translate(351.916896 201.755313)scale(0.11 -0.11)">
     <use xlink:href="#DejaVuSerif-2d"/>
     <use x="33.789062" xlink:href="#DejaVuSerif-30"/>
     <use x="97.412109" xlink:href="#DejaVuSerif-2e"/>
     <use x="129.199219" xlink:href="#DejaVuSerif-38"/>
     <use x="192.822266" xlink:href="#DejaVuSerif-35"/>
    </g>
   </g>
   <g id="text_111">
    <!-- 0.00 -->
    <g style="fill:#ffffff;" transform="translate(29.121179 225.947313)scale(0.11 -0.11)">
     <use xlink:href="#DejaVuSerif-30"/>
     <use x="63.623047" xlink:href="#DejaVuSerif-2e"/>
     <use x="95.410156" xlink:href="#DejaVuSerif-30"/>
     <use x="159.033203" xlink:href="#DejaVuSerif-30"/>
    </g>
   </g>
   <g id="text_112">
    <!-- -0.46 -->
    <g style="fill:#ffffff;" transform="translate(59.727805 225.947313)scale(0.11 -0.11)">
     <use xlink:href="#DejaVuSerif-2d"/>
     <use x="33.789062" xlink:href="#DejaVuSerif-30"/>
     <use x="97.412109" xlink:href="#DejaVuSerif-2e"/>
     <use x="129.199219" xlink:href="#DejaVuSerif-34"/>
     <use x="192.822266" xlink:href="#DejaVuSerif-36"/>
    </g>
   </g>
   <g id="text_113">
    <!-- -0.63 -->
    <g style="fill:#ffffff;" transform="translate(92.19326 225.947313)scale(0.11 -0.11)">
     <use xlink:href="#DejaVuSerif-2d"/>
     <use x="33.789062" xlink:href="#DejaVuSerif-30"/>
     <use x="97.412109" xlink:href="#DejaVuSerif-2e"/>
     <use x="129.199219" xlink:href="#DejaVuSerif-36"/>
     <use x="192.822266" xlink:href="#DejaVuSerif-33"/>
    </g>
   </g>
   <g id="text_114">
    <!-- -0.71 -->
    <g style="fill:#ffffff;" transform="translate(124.658714 225.947313)scale(0.11 -0.11)">
     <use xlink:href="#DejaVuSerif-2d"/>
     <use x="33.789062" xlink:href="#DejaVuSerif-30"/>
     <use x="97.412109" xlink:href="#DejaVuSerif-2e"/>
     <use x="129.199219" xlink:href="#DejaVuSerif-37"/>
     <use x="192.822266" xlink:href="#DejaVuSerif-31"/>
    </g>
   </g>
   <g id="text_115">
    <!-- -0.77 -->
    <g style="fill:#ffffff;" transform="translate(157.124169 225.947313)scale(0.11 -0.11)">
     <use xlink:href="#DejaVuSerif-2d"/>
     <use x="33.789062" xlink:href="#DejaVuSerif-30"/>
     <use x="97.412109" xlink:href="#DejaVuSerif-2e"/>
     <use x="129.199219" xlink:href="#DejaVuSerif-37"/>
     <use x="192.822266" xlink:href="#DejaVuSerif-37"/>
    </g>
   </g>
   <g id="text_116">
    <!-- -0.80 -->
    <g style="fill:#262626;" transform="translate(189.589624 225.947313)scale(0.11 -0.11)">
     <use xlink:href="#DejaVuSerif-2d"/>
     <use x="33.789062" xlink:href="#DejaVuSerif-30"/>
     <use x="97.412109" xlink:href="#DejaVuSerif-2e"/>
     <use x="129.199219" xlink:href="#DejaVuSerif-38"/>
     <use x="192.822266" xlink:href="#DejaVuSerif-30"/>
    </g>
   </g>
   <g id="text_117">
    <!-- -0.83 -->
    <g style="fill:#262626;" transform="translate(222.055078 225.947313)scale(0.11 -0.11)">
     <use xlink:href="#DejaVuSerif-2d"/>
     <use x="33.789062" xlink:href="#DejaVuSerif-30"/>
     <use x="97.412109" xlink:href="#DejaVuSerif-2e"/>
     <use x="129.199219" xlink:href="#DejaVuSerif-38"/>
     <use x="192.822266" xlink:href="#DejaVuSerif-33"/>
    </g>
   </g>
   <g id="text_118">
    <!-- -0.85 -->
    <g style="fill:#262626;" transform="translate(254.520533 225.947313)scale(0.11 -0.11)">
     <use xlink:href="#DejaVuSerif-2d"/>
     <use x="33.789062" xlink:href="#DejaVuSerif-30"/>
     <use x="97.412109" xlink:href="#DejaVuSerif-2e"/>
     <use x="129.199219" xlink:href="#DejaVuSerif-38"/>
     <use x="192.822266" xlink:href="#DejaVuSerif-35"/>
    </g>
   </g>
   <g id="text_119">
    <!-- -0.86 -->
    <g style="fill:#262626;" transform="translate(286.985987 225.947313)scale(0.11 -0.11)">
     <use xlink:href="#DejaVuSerif-2d"/>
     <use x="33.789062" xlink:href="#DejaVuSerif-30"/>
     <use x="97.412109" xlink:href="#DejaVuSerif-2e"/>
     <use x="129.199219" xlink:href="#DejaVuSerif-38"/>
     <use x="192.822266" xlink:href="#DejaVuSerif-36"/>
    </g>
   </g>
   <g id="text_120">
    <!-- -0.87 -->
    <g style="fill:#262626;" transform="translate(319.451442 225.947313)scale(0.11 -0.11)">
     <use xlink:href="#DejaVuSerif-2d"/>
     <use x="33.789062" xlink:href="#DejaVuSerif-30"/>
     <use x="97.412109" xlink:href="#DejaVuSerif-2e"/>
     <use x="129.199219" xlink:href="#DejaVuSerif-38"/>
     <use x="192.822266" xlink:href="#DejaVuSerif-37"/>
    </g>
   </g>
   <g id="text_121">
    <!-- -0.88 -->
    <g style="fill:#262626;" transform="translate(351.916896 225.947313)scale(0.11 -0.11)">
     <use xlink:href="#DejaVuSerif-2d"/>
     <use x="33.789062" xlink:href="#DejaVuSerif-30"/>
     <use x="97.412109" xlink:href="#DejaVuSerif-2e"/>
     <use x="129.199219" xlink:href="#DejaVuSerif-38"/>
     <use x="192.822266" xlink:href="#DejaVuSerif-38"/>
    </g>
   </g>
   <g id="text_122">
    <!-- 0.00 -->
    <g style="fill:#ffffff;" transform="translate(29.121179 250.139312)scale(0.11 -0.11)">
     <use xlink:href="#DejaVuSerif-30"/>
     <use x="63.623047" xlink:href="#DejaVuSerif-2e"/>
     <use x="95.410156" xlink:href="#DejaVuSerif-30"/>
     <use x="159.033203" xlink:href="#DejaVuSerif-30"/>
    </g>
   </g>
   <g id="text_123">
    <!-- -0.50 -->
    <g style="fill:#ffffff;" transform="translate(59.727805 250.139312)scale(0.11 -0.11)">
     <use xlink:href="#DejaVuSerif-2d"/>
     <use x="33.789062" xlink:href="#DejaVuSerif-30"/>
     <use x="97.412109" xlink:href="#DejaVuSerif-2e"/>
     <use x="129.199219" xlink:href="#DejaVuSerif-35"/>
     <use x="192.822266" xlink:href="#DejaVuSerif-30"/>
    </g>
   </g>
   <g id="text_124">
    <!-- -0.67 -->
    <g style="fill:#ffffff;" transform="translate(92.19326 250.139312)scale(0.11 -0.11)">
     <use xlink:href="#DejaVuSerif-2d"/>
     <use x="33.789062" xlink:href="#DejaVuSerif-30"/>
     <use x="97.412109" xlink:href="#DejaVuSerif-2e"/>
     <use x="129.199219" xlink:href="#DejaVuSerif-36"/>
     <use x="192.822266" xlink:href="#DejaVuSerif-37"/>
    </g>
   </g>
   <g id="text_125">
    <!-- -0.75 -->
    <g style="fill:#ffffff;" transform="translate(124.658714 250.139312)scale(0.11 -0.11)">
     <use xlink:href="#DejaVuSerif-2d"/>
     <use x="33.789062" xlink:href="#DejaVuSerif-30"/>
     <use x="97.412109" xlink:href="#DejaVuSerif-2e"/>
     <use x="129.199219" xlink:href="#DejaVuSerif-37"/>
     <use x="192.822266" xlink:href="#DejaVuSerif-35"/>
    </g>
   </g>
   <g id="text_126">
    <!-- -0.80 -->
    <g style="fill:#262626;" transform="translate(157.124169 250.139312)scale(0.11 -0.11)">
     <use xlink:href="#DejaVuSerif-2d"/>
     <use x="33.789062" xlink:href="#DejaVuSerif-30"/>
     <use x="97.412109" xlink:href="#DejaVuSerif-2e"/>
     <use x="129.199219" xlink:href="#DejaVuSerif-38"/>
     <use x="192.822266" xlink:href="#DejaVuSerif-30"/>
    </g>
   </g>
   <g id="text_127">
    <!-- -0.83 -->
    <g style="fill:#262626;" transform="translate(189.589624 250.139312)scale(0.11 -0.11)">
     <use xlink:href="#DejaVuSerif-2d"/>
     <use x="33.789062" xlink:href="#DejaVuSerif-30"/>
     <use x="97.412109" xlink:href="#DejaVuSerif-2e"/>
     <use x="129.199219" xlink:href="#DejaVuSerif-38"/>
     <use x="192.822266" xlink:href="#DejaVuSerif-33"/>
    </g>
   </g>
   <g id="text_128">
    <!-- -0.86 -->
    <g style="fill:#262626;" transform="translate(222.055078 250.139312)scale(0.11 -0.11)">
     <use xlink:href="#DejaVuSerif-2d"/>
     <use x="33.789062" xlink:href="#DejaVuSerif-30"/>
     <use x="97.412109" xlink:href="#DejaVuSerif-2e"/>
     <use x="129.199219" xlink:href="#DejaVuSerif-38"/>
     <use x="192.822266" xlink:href="#DejaVuSerif-36"/>
    </g>
   </g>
   <g id="text_129">
    <!-- -0.88 -->
    <g style="fill:#262626;" transform="translate(254.520533 250.139312)scale(0.11 -0.11)">
     <use xlink:href="#DejaVuSerif-2d"/>
     <use x="33.789062" xlink:href="#DejaVuSerif-30"/>
     <use x="97.412109" xlink:href="#DejaVuSerif-2e"/>
     <use x="129.199219" xlink:href="#DejaVuSerif-38"/>
     <use x="192.822266" xlink:href="#DejaVuSerif-38"/>
    </g>
   </g>
   <g id="text_130">
    <!-- -0.89 -->
    <g style="fill:#262626;" transform="translate(286.985987 250.139312)scale(0.11 -0.11)">
     <use xlink:href="#DejaVuSerif-2d"/>
     <use x="33.789062" xlink:href="#DejaVuSerif-30"/>
     <use x="97.412109" xlink:href="#DejaVuSerif-2e"/>
     <use x="129.199219" xlink:href="#DejaVuSerif-38"/>
     <use x="192.822266" xlink:href="#DejaVuSerif-39"/>
    </g>
   </g>
   <g id="text_131">
    <!-- -0.90 -->
    <g style="fill:#262626;" transform="translate(319.451442 250.139312)scale(0.11 -0.11)">
     <use xlink:href="#DejaVuSerif-2d"/>
     <use x="33.789062" xlink:href="#DejaVuSerif-30"/>
     <use x="97.412109" xlink:href="#DejaVuSerif-2e"/>
     <use x="129.199219" xlink:href="#DejaVuSerif-39"/>
     <use x="192.822266" xlink:href="#DejaVuSerif-30"/>
    </g>
   </g>
   <g id="text_132">
    <!-- -0.91 -->
    <g style="fill:#262626;" transform="translate(351.916896 250.139312)scale(0.11 -0.11)">
     <use xlink:href="#DejaVuSerif-2d"/>
     <use x="33.789062" xlink:href="#DejaVuSerif-30"/>
     <use x="97.412109" xlink:href="#DejaVuSerif-2e"/>
     <use x="129.199219" xlink:href="#DejaVuSerif-39"/>
     <use x="192.822266" xlink:href="#DejaVuSerif-31"/>
    </g>
   </g>
   <g id="text_133">
    <!-- 0.00 -->
    <g style="fill:#ffffff;" transform="translate(29.121179 274.331312)scale(0.11 -0.11)">
     <use xlink:href="#DejaVuSerif-30"/>
     <use x="63.623047" xlink:href="#DejaVuSerif-2e"/>
     <use x="95.410156" xlink:href="#DejaVuSerif-30"/>
     <use x="159.033203" xlink:href="#DejaVuSerif-30"/>
    </g>
   </g>
   <g id="text_134">
    <!-- -0.53 -->
    <g style="fill:#ffffff;" transform="translate(59.727805 274.331312)scale(0.11 -0.11)">
     <use xlink:href="#DejaVuSerif-2d"/>
     <use x="33.789062" xlink:href="#DejaVuSerif-30"/>
     <use x="97.412109" xlink:href="#DejaVuSerif-2e"/>
     <use x="129.199219" xlink:href="#DejaVuSerif-35"/>
     <use x="192.822266" xlink:href="#DejaVuSerif-33"/>
    </g>
   </g>
   <g id="text_135">
    <!-- -0.70 -->
    <g style="fill:#ffffff;" transform="translate(92.19326 274.331312)scale(0.11 -0.11)">
     <use xlink:href="#DejaVuSerif-2d"/>
     <use x="33.789062" xlink:href="#DejaVuSerif-30"/>
     <use x="97.412109" xlink:href="#DejaVuSerif-2e"/>
     <use x="129.199219" xlink:href="#DejaVuSerif-37"/>
     <use x="192.822266" xlink:href="#DejaVuSerif-30"/>
    </g>
   </g>
   <g id="text_136">
    <!-- -0.78 -->
    <g style="fill:#ffffff;" transform="translate(124.658714 274.331312)scale(0.11 -0.11)">
     <use xlink:href="#DejaVuSerif-2d"/>
     <use x="33.789062" xlink:href="#DejaVuSerif-30"/>
     <use x="97.412109" xlink:href="#DejaVuSerif-2e"/>
     <use x="129.199219" xlink:href="#DejaVuSerif-37"/>
     <use x="192.822266" xlink:href="#DejaVuSerif-38"/>
    </g>
   </g>
   <g id="text_137">
    <!-- -0.83 -->
    <g style="fill:#262626;" transform="translate(157.124169 274.331312)scale(0.11 -0.11)">
     <use xlink:href="#DejaVuSerif-2d"/>
     <use x="33.789062" xlink:href="#DejaVuSerif-30"/>
     <use x="97.412109" xlink:href="#DejaVuSerif-2e"/>
     <use x="129.199219" xlink:href="#DejaVuSerif-38"/>
     <use x="192.822266" xlink:href="#DejaVuSerif-33"/>
    </g>
   </g>
   <g id="text_138">
    <!-- -0.86 -->
    <g style="fill:#262626;" transform="translate(189.589624 274.331312)scale(0.11 -0.11)">
     <use xlink:href="#DejaVuSerif-2d"/>
     <use x="33.789062" xlink:href="#DejaVuSerif-30"/>
     <use x="97.412109" xlink:href="#DejaVuSerif-2e"/>
     <use x="129.199219" xlink:href="#DejaVuSerif-38"/>
     <use x="192.822266" xlink:href="#DejaVuSerif-36"/>
    </g>
   </g>
   <g id="text_139">
    <!-- -0.88 -->
    <g style="fill:#262626;" transform="translate(222.055078 274.331312)scale(0.11 -0.11)">
     <use xlink:href="#DejaVuSerif-2d"/>
     <use x="33.789062" xlink:href="#DejaVuSerif-30"/>
     <use x="97.412109" xlink:href="#DejaVuSerif-2e"/>
     <use x="129.199219" xlink:href="#DejaVuSerif-38"/>
     <use x="192.822266" xlink:href="#DejaVuSerif-38"/>
    </g>
   </g>
   <g id="text_140">
    <!-- -0.90 -->
    <g style="fill:#262626;" transform="translate(254.520533 274.331312)scale(0.11 -0.11)">
     <use xlink:href="#DejaVuSerif-2d"/>
     <use x="33.789062" xlink:href="#DejaVuSerif-30"/>
     <use x="97.412109" xlink:href="#DejaVuSerif-2e"/>
     <use x="129.199219" xlink:href="#DejaVuSerif-39"/>
     <use x="192.822266" xlink:href="#DejaVuSerif-30"/>
    </g>
   </g>
   <g id="text_141">
    <!-- -0.91 -->
    <g style="fill:#262626;" transform="translate(286.985987 274.331312)scale(0.11 -0.11)">
     <use xlink:href="#DejaVuSerif-2d"/>
     <use x="33.789062" xlink:href="#DejaVuSerif-30"/>
     <use x="97.412109" xlink:href="#DejaVuSerif-2e"/>
     <use x="129.199219" xlink:href="#DejaVuSerif-39"/>
     <use x="192.822266" xlink:href="#DejaVuSerif-31"/>
    </g>
   </g>
   <g id="text_142">
    <!-- -0.92 -->
    <g style="fill:#262626;" transform="translate(319.451442 274.331312)scale(0.11 -0.11)">
     <use xlink:href="#DejaVuSerif-2d"/>
     <use x="33.789062" xlink:href="#DejaVuSerif-30"/>
     <use x="97.412109" xlink:href="#DejaVuSerif-2e"/>
     <use x="129.199219" xlink:href="#DejaVuSerif-39"/>
     <use x="192.822266" xlink:href="#DejaVuSerif-32"/>
    </g>
   </g>
   <g id="text_143">
    <!-- -0.93 -->
    <g style="fill:#262626;" transform="translate(351.916896 274.331312)scale(0.11 -0.11)">
     <use xlink:href="#DejaVuSerif-2d"/>
     <use x="33.789062" xlink:href="#DejaVuSerif-30"/>
     <use x="97.412109" xlink:href="#DejaVuSerif-2e"/>
     <use x="129.199219" xlink:href="#DejaVuSerif-39"/>
     <use x="192.822266" xlink:href="#DejaVuSerif-33"/>
    </g>
   </g>
   <g id="text_144">
    <!-- Heatmap of the CRMRR penalty term, n = 10. -->
    <g transform="translate(95.661563 35.472)scale(0.12 -0.12)">
     <defs>
      <path d="M 353 0 
L 353 331 
L 947 331 
L 947 4331 
L 353 4331 
L 353 4666 
L 2175 4666 
L 2175 4331 
L 1581 4331 
L 1581 2719 
L 4000 2719 
L 4000 4331 
L 3406 4331 
L 3406 4666 
L 5228 4666 
L 5228 4331 
L 4634 4331 
L 4634 331 
L 5228 331 
L 5228 0 
L 3406 0 
L 3406 331 
L 4000 331 
L 4000 2338 
L 1581 2338 
L 1581 331 
L 2175 331 
L 2175 0 
L 353 0 
z
" id="DejaVuSerif-48" transform="scale(0.015625)"/>
      <path d="M 3469 1600 
L 991 1600 
L 991 1575 
Q 991 903 1244 561 
Q 1497 219 1991 219 
Q 2369 219 2611 417 
Q 2853 616 2950 1006 
L 3413 1006 
Q 3275 459 2904 184 
Q 2534 -91 1931 -91 
Q 1203 -91 761 389 
Q 319 869 319 1663 
Q 319 2450 753 2931 
Q 1188 3413 1894 3413 
Q 2647 3413 3050 2948 
Q 3453 2484 3469 1600 
z
M 2791 1931 
Q 2772 2513 2545 2808 
Q 2319 3103 1894 3103 
Q 1497 3103 1269 2806 
Q 1041 2509 991 1931 
L 2791 1931 
z
" id="DejaVuSerif-65" transform="scale(0.015625)"/>
      <path d="M 2547 1044 
L 2547 1747 
L 1806 1747 
Q 1378 1747 1168 1562 
Q 959 1378 959 997 
Q 959 650 1171 447 
Q 1384 244 1747 244 
Q 2106 244 2326 466 
Q 2547 688 2547 1044 
z
M 3122 2075 
L 3122 331 
L 3634 331 
L 3634 0 
L 2547 0 
L 2547 359 
Q 2356 128 2106 18 
Q 1856 -91 1522 -91 
Q 969 -91 644 203 
Q 319 497 319 997 
Q 319 1513 691 1797 
Q 1063 2081 1741 2081 
L 2547 2081 
L 2547 2309 
Q 2547 2688 2317 2895 
Q 2088 3103 1672 3103 
Q 1328 3103 1125 2947 
Q 922 2791 872 2484 
L 575 2484 
L 575 3156 
Q 875 3284 1158 3348 
Q 1441 3413 1709 3413 
Q 2400 3413 2761 3070 
Q 3122 2728 3122 2075 
z
" id="DejaVuSerif-61" transform="scale(0.015625)"/>
      <path d="M 691 2988 
L 184 2988 
L 184 3322 
L 691 3322 
L 691 4353 
L 1269 4353 
L 1269 3322 
L 2350 3322 
L 2350 2988 
L 1269 2988 
L 1269 878 
Q 1269 456 1350 337 
Q 1431 219 1650 219 
Q 1875 219 1978 351 
Q 2081 484 2088 781 
L 2522 781 
Q 2497 328 2275 118 
Q 2053 -91 1600 -91 
Q 1103 -91 897 129 
Q 691 350 691 878 
L 691 2988 
z
" id="DejaVuSerif-74" transform="scale(0.015625)"/>
      <path d="M 3316 2675 
Q 3481 3041 3739 3227 
Q 3997 3413 4341 3413 
Q 4863 3413 5119 3089 
Q 5375 2766 5375 2113 
L 5375 331 
L 5894 331 
L 5894 0 
L 4300 0 
L 4300 331 
L 4800 331 
L 4800 2047 
Q 4800 2556 4650 2772 
Q 4500 2988 4153 2988 
Q 3769 2988 3567 2697 
Q 3366 2406 3366 1850 
L 3366 331 
L 3866 331 
L 3866 0 
L 2291 0 
L 2291 331 
L 2791 331 
L 2791 2069 
Q 2791 2566 2641 2777 
Q 2491 2988 2144 2988 
Q 1759 2988 1557 2697 
Q 1356 2406 1356 1850 
L 1356 331 
L 1856 331 
L 1856 0 
L 263 0 
L 263 331 
L 781 331 
L 781 2994 
L 231 2994 
L 231 3322 
L 1356 3322 
L 1356 2731 
Q 1516 3063 1762 3238 
Q 2009 3413 2322 3413 
Q 2709 3413 2968 3220 
Q 3228 3028 3316 2675 
z
" id="DejaVuSerif-6d" transform="scale(0.015625)"/>
      <path d="M 1313 1825 
L 1313 1497 
Q 1313 897 1542 583 
Q 1772 269 2209 269 
Q 2650 269 2876 622 
Q 3103 975 3103 1663 
Q 3103 2353 2876 2703 
Q 2650 3053 2209 3053 
Q 1772 3053 1542 2737 
Q 1313 2422 1313 1825 
z
M 738 2988 
L 184 2988 
L 184 3322 
L 1313 3322 
L 1313 2803 
Q 1481 3116 1742 3264 
Q 2003 3413 2388 3413 
Q 3000 3413 3387 2928 
Q 3775 2444 3775 1663 
Q 3775 881 3387 395 
Q 3000 -91 2388 -91 
Q 2003 -91 1742 57 
Q 1481 206 1313 519 
L 1313 -997 
L 1856 -997 
L 1856 -1331 
L 184 -1331 
L 184 -997 
L 738 -997 
L 738 2988 
z
" id="DejaVuSerif-70" transform="scale(0.015625)"/>
      <path id="DejaVuSerif-20" transform="scale(0.015625)"/>
      <path d="M 1925 219 
Q 2388 219 2623 584 
Q 2859 950 2859 1663 
Q 2859 2375 2623 2739 
Q 2388 3103 1925 3103 
Q 1463 3103 1227 2739 
Q 991 2375 991 1663 
Q 991 950 1228 584 
Q 1466 219 1925 219 
z
M 1925 -91 
Q 1200 -91 759 389 
Q 319 869 319 1663 
Q 319 2456 758 2934 
Q 1197 3413 1925 3413 
Q 2653 3413 3092 2934 
Q 3531 2456 3531 1663 
Q 3531 869 3092 389 
Q 2653 -91 1925 -91 
z
" id="DejaVuSerif-6f" transform="scale(0.015625)"/>
      <path d="M 2753 4078 
L 2450 4078 
Q 2447 4313 2317 4434 
Q 2188 4556 1941 4556 
Q 1619 4556 1487 4379 
Q 1356 4203 1356 3750 
L 1356 3322 
L 2284 3322 
L 2284 2988 
L 1356 2988 
L 1356 331 
L 2094 331 
L 2094 0 
L 231 0 
L 231 331 
L 781 331 
L 781 2988 
L 231 2988 
L 231 3322 
L 781 3322 
L 781 3738 
Q 781 4294 1070 4578 
Q 1359 4863 1919 4863 
Q 2128 4863 2337 4825 
Q 2547 4788 2753 4709 
L 2753 4078 
z
" id="DejaVuSerif-66" transform="scale(0.015625)"/>
      <path d="M 263 0 
L 263 331 
L 781 331 
L 781 4531 
L 231 4531 
L 231 4863 
L 1356 4863 
L 1356 2731 
Q 1516 3069 1770 3241 
Q 2025 3413 2363 3413 
Q 2913 3413 3172 3097 
Q 3431 2781 3431 2113 
L 3431 331 
L 3944 331 
L 3944 0 
L 2356 0 
L 2356 331 
L 2853 331 
L 2853 1931 
Q 2853 2541 2704 2764 
Q 2556 2988 2175 2988 
Q 1775 2988 1565 2697 
Q 1356 2406 1356 1850 
L 1356 331 
L 1856 331 
L 1856 0 
L 263 0 
z
" id="DejaVuSerif-68" transform="scale(0.015625)"/>
      <path d="M 4513 1234 
Q 4306 581 3820 245 
Q 3334 -91 2591 -91 
Q 2134 -91 1743 65 
Q 1353 222 1050 525 
Q 700 875 529 1320 
Q 359 1766 359 2328 
Q 359 3416 987 4083 
Q 1616 4750 2644 4750 
Q 3025 4750 3456 4650 
Q 3888 4550 4384 4347 
L 4384 3272 
L 4031 3272 
Q 3916 3859 3567 4137 
Q 3219 4416 2591 4416 
Q 1844 4416 1459 3886 
Q 1075 3356 1075 2328 
Q 1075 1303 1459 773 
Q 1844 244 2591 244 
Q 3113 244 3450 492 
Q 3788 741 3938 1234 
L 4513 1234 
z
" id="DejaVuSerif-43" transform="scale(0.015625)"/>
      <path d="M 3066 2316 
Q 3284 2256 3442 2114 
Q 3600 1972 3725 1716 
L 4403 331 
L 4972 331 
L 4972 0 
L 3872 0 
L 3144 1484 
Q 2934 1916 2759 2042 
Q 2584 2169 2278 2169 
L 1581 2169 
L 1581 331 
L 2241 331 
L 2241 0 
L 353 0 
L 353 331 
L 947 331 
L 947 4331 
L 353 4331 
L 353 4666 
L 2719 4666 
Q 3400 4666 3770 4341 
Q 4141 4016 4141 3419 
Q 4141 2938 3870 2661 
Q 3600 2384 3066 2316 
z
M 1581 2503 
L 2503 2503 
Q 2975 2503 3200 2726 
Q 3425 2950 3425 3419 
Q 3425 3888 3200 4109 
Q 2975 4331 2503 4331 
L 1581 4331 
L 1581 2503 
z
" id="DejaVuSerif-52" transform="scale(0.015625)"/>
      <path d="M 353 0 
L 353 331 
L 947 331 
L 947 4331 
L 319 4331 
L 319 4666 
L 1678 4666 
L 3316 1344 
L 4953 4666 
L 6228 4666 
L 6228 4331 
L 5606 4331 
L 5606 331 
L 6203 331 
L 6203 0 
L 4378 0 
L 4378 331 
L 4972 331 
L 4972 3938 
L 3372 684 
L 2931 684 
L 1331 3938 
L 1331 331 
L 1925 331 
L 1925 0 
L 353 0 
z
" id="DejaVuSerif-4d" transform="scale(0.015625)"/>
      <path d="M 263 0 
L 263 331 
L 781 331 
L 781 2988 
L 231 2988 
L 231 3322 
L 1356 3322 
L 1356 2731 
Q 1516 3069 1770 3241 
Q 2025 3413 2363 3413 
Q 2913 3413 3172 3097 
Q 3431 2781 3431 2113 
L 3431 331 
L 3944 331 
L 3944 0 
L 2356 0 
L 2356 331 
L 2853 331 
L 2853 1931 
Q 2853 2541 2703 2767 
Q 2553 2994 2175 2994 
Q 1775 2994 1565 2701 
Q 1356 2409 1356 1850 
L 1356 331 
L 1856 331 
L 1856 0 
L 263 0 
z
" id="DejaVuSerif-6e" transform="scale(0.015625)"/>
      <path d="M 1313 331 
L 1856 331 
L 1856 0 
L 184 0 
L 184 331 
L 738 331 
L 738 4531 
L 184 4531 
L 184 4863 
L 1313 4863 
L 1313 331 
z
" id="DejaVuSerif-6c" transform="scale(0.015625)"/>
      <path d="M 1381 -609 
L 1600 -56 
L 359 2988 
L -19 2988 
L -19 3322 
L 1509 3322 
L 1509 2988 
L 978 2988 
L 1913 703 
L 2847 2988 
L 2350 2988 
L 2350 3322 
L 3597 3322 
L 3597 2988 
L 3225 2988 
L 1703 -750 
Q 1547 -1138 1356 -1280 
Q 1166 -1422 819 -1422 
Q 672 -1422 517 -1397 
Q 363 -1372 206 -1325 
L 206 -691 
L 500 -691 
Q 519 -903 608 -995 
Q 697 -1088 884 -1088 
Q 1056 -1088 1161 -992 
Q 1266 -897 1381 -609 
z
" id="DejaVuSerif-79" transform="scale(0.015625)"/>
      <path d="M 3059 3328 
L 3059 2497 
L 2728 2497 
Q 2713 2744 2591 2866 
Q 2469 2988 2234 2988 
Q 1809 2988 1582 2694 
Q 1356 2400 1356 1850 
L 1356 331 
L 2022 331 
L 2022 0 
L 263 0 
L 263 331 
L 781 331 
L 781 2994 
L 231 2994 
L 231 3322 
L 1356 3322 
L 1356 2731 
Q 1525 3078 1790 3245 
Q 2056 3413 2438 3413 
Q 2578 3413 2733 3391 
Q 2888 3369 3059 3328 
z
" id="DejaVuSerif-72" transform="scale(0.015625)"/>
      <path d="M 231 -622 
Q 525 -406 662 -114 
Q 800 178 800 594 
L 800 709 
L 1416 709 
Q 1391 175 1164 -208 
Q 938 -591 481 -872 
L 231 -622 
z
" id="DejaVuSerif-2c" transform="scale(0.015625)"/>
      <path d="M 678 2894 
L 4684 2894 
L 4684 2394 
L 678 2394 
L 678 2894 
z
M 678 1619 
L 4684 1619 
L 4684 1119 
L 678 1119 
L 678 1619 
z
" id="DejaVuSerif-3d" transform="scale(0.015625)"/>
     </defs>
     <use xlink:href="#DejaVuSerif-48"/>
     <use x="87.207031" xlink:href="#DejaVuSerif-65"/>
     <use x="146.386719" xlink:href="#DejaVuSerif-61"/>
     <use x="206.005859" xlink:href="#DejaVuSerif-74"/>
     <use x="246.191406" xlink:href="#DejaVuSerif-6d"/>
     <use x="341.015625" xlink:href="#DejaVuSerif-61"/>
     <use x="400.634766" xlink:href="#DejaVuSerif-70"/>
     <use x="464.648438" xlink:href="#DejaVuSerif-20"/>
     <use x="496.435547" xlink:href="#DejaVuSerif-6f"/>
     <use x="556.640625" xlink:href="#DejaVuSerif-66"/>
     <use x="593.652344" xlink:href="#DejaVuSerif-20"/>
     <use x="625.439453" xlink:href="#DejaVuSerif-74"/>
     <use x="665.625" xlink:href="#DejaVuSerif-68"/>
     <use x="730.029297" xlink:href="#DejaVuSerif-65"/>
     <use x="789.208984" xlink:href="#DejaVuSerif-20"/>
     <use x="820.996094" xlink:href="#DejaVuSerif-43"/>
     <use x="897.509766" xlink:href="#DejaVuSerif-52"/>
     <use x="972.802734" xlink:href="#DejaVuSerif-4d"/>
     <use x="1075.195312" xlink:href="#DejaVuSerif-52"/>
     <use x="1150.488281" xlink:href="#DejaVuSerif-52"/>
     <use x="1225.78125" xlink:href="#DejaVuSerif-20"/>
     <use x="1257.568359" xlink:href="#DejaVuSerif-70"/>
     <use x="1321.582031" xlink:href="#DejaVuSerif-65"/>
     <use x="1380.761719" xlink:href="#DejaVuSerif-6e"/>
     <use x="1445.166016" xlink:href="#DejaVuSerif-61"/>
     <use x="1504.785156" xlink:href="#DejaVuSerif-6c"/>
     <use x="1536.767578" xlink:href="#DejaVuSerif-74"/>
     <use x="1576.953125" xlink:href="#DejaVuSerif-79"/>
     <use x="1633.447266" xlink:href="#DejaVuSerif-20"/>
     <use x="1665.234375" xlink:href="#DejaVuSerif-74"/>
     <use x="1705.419922" xlink:href="#DejaVuSerif-65"/>
     <use x="1764.599609" xlink:href="#DejaVuSerif-72"/>
     <use x="1812.402344" xlink:href="#DejaVuSerif-6d"/>
     <use x="1907.226562" xlink:href="#DejaVuSerif-2c"/>
     <use x="1939.013672" xlink:href="#DejaVuSerif-20"/>
     <use x="1970.800781" xlink:href="#DejaVuSerif-6e"/>
     <use x="2035.205078" xlink:href="#DejaVuSerif-20"/>
     <use x="2066.992188" xlink:href="#DejaVuSerif-3d"/>
     <use x="2150.78125" xlink:href="#DejaVuSerif-20"/>
     <use x="2182.568359" xlink:href="#DejaVuSerif-31"/>
     <use x="2246.191406" xlink:href="#DejaVuSerif-30"/>
     <use x="2309.814453" xlink:href="#DejaVuSerif-2e"/>
    </g>
   </g>
  </g>
 </g>
 <defs>
  <clipPath id="pfae79bd41b">
   <rect height="266.112" width="357.12" x="57.6" y="41.472"/>
  </clipPath>
 </defs>
</svg>
